<?xml version="1.0" encoding="UTF-8" standalone="no"?>
<svg
   xmlns:dc="http://purl.org/dc/elements/1.1/"
   xmlns:cc="http://creativecommons.org/ns#"
   xmlns:rdf="http://www.w3.org/1999/02/22-rdf-syntax-ns#"
   xmlns:svg="http://www.w3.org/2000/svg"
   xmlns="http://www.w3.org/2000/svg"
   xmlns:xlink="http://www.w3.org/1999/xlink"
   xmlns:sodipodi="http://sodipodi.sourceforge.net/DTD/sodipodi-0.dtd"
   xmlns:inkscape="http://www.inkscape.org/namespaces/inkscape"
   sodipodi:docname="Biorobotics Logo - Horizontal - v202108.svg"
   inkscape:version="1.0 (4035a4fb49, 2020-05-01)"
   id="svg5"
   version="1.1"
   viewBox="0 0 297 210"
   height="210mm"
   width="297mm">
  <metadata
     id="metadata2075">
    <rdf:RDF>
      <cc:Work
         rdf:about="">
        <dc:format>image/svg+xml</dc:format>
        <dc:type
           rdf:resource="http://purl.org/dc/dcmitype/StillImage" />
      </cc:Work>
    </rdf:RDF>
  </metadata>
  <sodipodi:namedview
     inkscape:document-rotation="0"
     inkscape:current-layer="g550"
     inkscape:window-maximized="1"
     inkscape:window-y="-11"
     inkscape:window-x="-11"
     inkscape:window-height="2080"
     inkscape:window-width="3840"
     inkscape:cy="500.94871"
     inkscape:cx="-282.36896"
     inkscape:zoom="0.81428119"
     showgrid="false"
     inkscape:document-units="mm"
     inkscape:pagecheckerboard="0"
     inkscape:pageopacity="0.0"
     inkscape:pageshadow="2"
     borderopacity="1.0"
     bordercolor="#666666"
     pagecolor="#ffffff"
     id="namedview7" />
  <defs
     id="defs2">
    <linearGradient
       inkscape:swatch="solid"
       id="linearGradient8811">
      <stop
         id="stop8809"
         offset="0"
         style="stop-color:#f97a7a;stop-opacity:1;" />
    </linearGradient>
    <rect
       height="36.700001"
       width="414.60001"
       y="687"
       x="306"
       id="XMLID_456_" />
    <rect
       height="36.700001"
       width="414.60001"
       y="687"
       x="306"
       id="XMLID_424_" />
    <rect
       height="23.6"
       width="266.39999"
       y="270"
       x="23.1"
       id="XMLID_495_" />
    <rect
       height="23.6"
       width="266.39999"
       y="270"
       x="23.1"
       id="XMLID_532_" />
    <clipPath
       id="XMLID_584_-8">
      <use
         height="100%"
         width="100%"
         y="0"
         x="0"
         id="use318-5"
         overflow="visible"
         xlink:href="#XMLID_495_" />
    </clipPath>
    <clipPath
       id="clipPath902">
      <use
         height="100%"
         width="100%"
         y="0"
         x="0"
         id="use900"
         overflow="visible"
         xlink:href="#XMLID_495_" />
    </clipPath>
    <clipPath
       id="XMLID_585_-5">
      <use
         height="100%"
         width="100%"
         y="0"
         x="0"
         id="use348-0"
         overflow="visible"
         xlink:href="#XMLID_532_" />
    </clipPath>
    <clipPath
       id="clipPath908">
      <use
         height="100%"
         width="100%"
         y="0"
         x="0"
         id="use906"
         overflow="visible"
         xlink:href="#XMLID_532_" />
    </clipPath>
    <rect
       height="23.6"
       width="266.39999"
       y="270"
       x="23.1"
       id="rect493-9" />
    <rect
       height="23.6"
       width="266.39999"
       y="270"
       x="23.1"
       id="rect522-2" />
    <clipPath
       id="XMLID_584_-8-2">
      <use
         height="100%"
         width="100%"
         y="0"
         x="0"
         id="use318-5-3"
         overflow="visible"
         xlink:href="#XMLID_495_" />
    </clipPath>
    <clipPath
       id="clipPath2753">
      <use
         height="100%"
         width="100%"
         y="0"
         x="0"
         id="use2751"
         overflow="visible"
         xlink:href="#XMLID_495_" />
    </clipPath>
    <clipPath
       id="XMLID_585_-5-1">
      <use
         height="100%"
         width="100%"
         y="0"
         x="0"
         id="use348-0-3"
         overflow="visible"
         xlink:href="#XMLID_532_" />
    </clipPath>
    <clipPath
       id="clipPath2759">
      <use
         height="100%"
         width="100%"
         y="0"
         x="0"
         id="use2757"
         overflow="visible"
         xlink:href="#XMLID_532_" />
    </clipPath>
    <rect
       height="23.6"
       width="266.39999"
       y="270"
       x="23.1"
       id="rect1105-5" />
    <rect
       height="23.6"
       width="266.39999"
       y="270"
       x="23.1"
       id="rect1134-3" />
    <clipPath
       id="XMLID_584_-2">
      <use
         height="100%"
         width="100%"
         y="0"
         x="0"
         id="use318-0"
         overflow="visible"
         xlink:href="#XMLID_495_" />
    </clipPath>
    <clipPath
       id="clipPath3586">
      <use
         height="100%"
         width="100%"
         y="0"
         x="0"
         id="use3584"
         overflow="visible"
         xlink:href="#XMLID_495_" />
    </clipPath>
    <clipPath
       id="XMLID_585_-0">
      <use
         height="100%"
         width="100%"
         y="0"
         x="0"
         id="use348-7"
         overflow="visible"
         xlink:href="#XMLID_532_" />
    </clipPath>
    <clipPath
       id="clipPath3592">
      <use
         height="100%"
         width="100%"
         y="0"
         x="0"
         id="use3590"
         overflow="visible"
         xlink:href="#XMLID_532_" />
    </clipPath>
    <rect
       height="23.6"
       width="266.39999"
       y="270"
       x="23.1"
       id="rect493-7" />
    <rect
       height="23.6"
       width="266.39999"
       y="270"
       x="23.1"
       id="rect522-7" />
    <clipPath
       id="XMLID_584_-85">
      <use
         height="100%"
         width="100%"
         y="0"
         x="0"
         id="use318-06"
         overflow="visible"
         xlink:href="#XMLID_495_" />
    </clipPath>
    <clipPath
       id="clipPath3905">
      <use
         height="100%"
         width="100%"
         y="0"
         x="0"
         id="use3903"
         overflow="visible"
         xlink:href="#XMLID_495_" />
    </clipPath>
    <clipPath
       id="XMLID_585_-7">
      <use
         height="100%"
         width="100%"
         y="0"
         x="0"
         id="use348-1"
         overflow="visible"
         xlink:href="#XMLID_532_" />
    </clipPath>
    <clipPath
       id="clipPath3911">
      <use
         height="100%"
         width="100%"
         y="0"
         x="0"
         id="use3909"
         overflow="visible"
         xlink:href="#XMLID_532_" />
    </clipPath>
    <rect
       height="23.6"
       width="266.39999"
       y="270"
       x="23.1"
       id="rect493-5" />
    <rect
       height="23.6"
       width="266.39999"
       y="270"
       x="23.1"
       id="rect522-4" />
    <clipPath
       id="XMLID_584_-85-9">
      <use
         height="100%"
         width="100%"
         y="0"
         x="0"
         id="use318-06-1"
         overflow="visible"
         xlink:href="#XMLID_495_" />
    </clipPath>
    <clipPath
       id="clipPath5396">
      <use
         height="100%"
         width="100%"
         y="0"
         x="0"
         id="use5394"
         overflow="visible"
         xlink:href="#XMLID_495_" />
    </clipPath>
    <clipPath
       id="XMLID_585_-7-3">
      <use
         height="100%"
         width="100%"
         y="0"
         x="0"
         id="use348-1-1"
         overflow="visible"
         xlink:href="#XMLID_532_" />
    </clipPath>
    <clipPath
       id="clipPath5402">
      <use
         height="100%"
         width="100%"
         y="0"
         x="0"
         id="use5400"
         overflow="visible"
         xlink:href="#XMLID_532_" />
    </clipPath>
    <rect
       height="23.6"
       width="266.39999"
       y="270"
       x="23.1"
       id="rect4108-3" />
    <rect
       height="23.6"
       width="266.39999"
       y="270"
       x="23.1"
       id="rect4137-8" />
    <rect
       height="36.700001"
       width="414.60001"
       y="687"
       x="306"
       id="XMLID_456_-3" />
    <rect
       height="36.700001"
       width="414.60001"
       y="687"
       x="306"
       id="XMLID_424_-7" />
    <rect
       height="23.6"
       width="266.39999"
       y="270"
       x="23.1"
       id="XMLID_495_-0" />
    <rect
       height="23.6"
       width="266.39999"
       y="270"
       x="23.1"
       id="XMLID_532_-7" />
    <clipPath
       id="XMLID_584_-6">
      <use
         height="100%"
         width="100%"
         y="0"
         x="0"
         id="use318-1"
         overflow="visible"
         xlink:href="#XMLID_495_" />
    </clipPath>
    <clipPath
       id="clipPath6486">
      <use
         height="100%"
         width="100%"
         y="0"
         x="0"
         id="use6484"
         overflow="visible"
         xlink:href="#XMLID_495_" />
    </clipPath>
    <clipPath
       id="XMLID_585_-02">
      <use
         height="100%"
         width="100%"
         y="0"
         x="0"
         id="use348-2"
         overflow="visible"
         xlink:href="#XMLID_532_" />
    </clipPath>
    <clipPath
       id="clipPath6492">
      <use
         height="100%"
         width="100%"
         y="0"
         x="0"
         id="use6490"
         overflow="visible"
         xlink:href="#XMLID_532_" />
    </clipPath>
    <rect
       height="23.6"
       width="266.39999"
       y="270"
       x="23.1"
       id="rect493-4" />
    <rect
       height="23.6"
       width="266.39999"
       y="270"
       x="23.1"
       id="rect522-9" />
    <clipPath
       id="XMLID_584_-6-2">
      <use
         height="100%"
         width="100%"
         y="0"
         x="0"
         id="use318-1-6"
         overflow="visible"
         xlink:href="#XMLID_495_" />
    </clipPath>
    <clipPath
       id="clipPath6917">
      <use
         height="100%"
         width="100%"
         y="0"
         x="0"
         id="use6915"
         overflow="visible"
         xlink:href="#XMLID_495_" />
    </clipPath>
    <clipPath
       id="XMLID_585_-02-5">
      <use
         height="100%"
         width="100%"
         y="0"
         x="0"
         id="use348-2-1"
         overflow="visible"
         xlink:href="#XMLID_532_" />
    </clipPath>
    <clipPath
       id="clipPath6923">
      <use
         height="100%"
         width="100%"
         y="0"
         x="0"
         id="use6921"
         overflow="visible"
         xlink:href="#XMLID_532_" />
    </clipPath>
    <rect
       height="23.6"
       width="266.39999"
       y="270"
       x="23.1"
       id="rect6649-4" />
    <rect
       height="23.6"
       width="266.39999"
       y="270"
       x="23.1"
       id="rect6678-6" />
    <clipPath
       id="XMLID_584_-6-2-2">
      <use
         height="100%"
         width="100%"
         y="0"
         x="0"
         id="use318-1-6-0"
         overflow="visible"
         xlink:href="#XMLID_495_" />
    </clipPath>
    <clipPath
       id="clipPath7254">
      <use
         height="100%"
         width="100%"
         y="0"
         x="0"
         id="use7252"
         overflow="visible"
         xlink:href="#XMLID_495_" />
    </clipPath>
    <clipPath
       id="XMLID_585_-02-5-1">
      <use
         height="100%"
         width="100%"
         y="0"
         x="0"
         id="use348-2-1-3"
         overflow="visible"
         xlink:href="#XMLID_532_" />
    </clipPath>
    <clipPath
       id="clipPath7260">
      <use
         height="100%"
         width="100%"
         y="0"
         x="0"
         id="use7258"
         overflow="visible"
         xlink:href="#XMLID_532_" />
    </clipPath>
    <rect
       height="23.6"
       width="266.39999"
       y="270"
       x="23.1"
       id="rect7076-4" />
    <rect
       height="23.6"
       width="266.39999"
       y="270"
       x="23.1"
       id="rect7105-1" />
    <clipPath
       id="XMLID_584_-5">
      <use
         height="100%"
         width="100%"
         y="0"
         x="0"
         id="use318-59"
         overflow="visible"
         xlink:href="#XMLID_495_" />
    </clipPath>
    <clipPath
       id="clipPath7501">
      <use
         height="100%"
         width="100%"
         y="0"
         x="0"
         id="use7499"
         overflow="visible"
         xlink:href="#XMLID_495_" />
    </clipPath>
    <clipPath
       id="XMLID_585_-1">
      <use
         height="100%"
         width="100%"
         y="0"
         x="0"
         id="use348-5"
         overflow="visible"
         xlink:href="#XMLID_532_" />
    </clipPath>
    <clipPath
       id="clipPath7507">
      <use
         height="100%"
         width="100%"
         y="0"
         x="0"
         id="use7505"
         overflow="visible"
         xlink:href="#XMLID_532_" />
    </clipPath>
    <rect
       height="23.6"
       width="266.39999"
       y="270"
       x="23.1"
       id="rect493-91" />
    <rect
       height="23.6"
       width="266.39999"
       y="270"
       x="23.1"
       id="rect522-5" />
    <clipPath
       id="XMLID_584_-5-5">
      <use
         height="100%"
         width="100%"
         y="0"
         x="0"
         id="use318-59-1"
         overflow="visible"
         xlink:href="#XMLID_495_" />
    </clipPath>
    <clipPath
       id="clipPath8493">
      <use
         height="100%"
         width="100%"
         y="0"
         x="0"
         id="use8491"
         overflow="visible"
         xlink:href="#XMLID_495_" />
    </clipPath>
    <clipPath
       id="XMLID_585_-1-0">
      <use
         height="100%"
         width="100%"
         y="0"
         x="0"
         id="use348-5-4"
         overflow="visible"
         xlink:href="#XMLID_532_" />
    </clipPath>
    <clipPath
       id="clipPath8499">
      <use
         height="100%"
         width="100%"
         y="0"
         x="0"
         id="use8497"
         overflow="visible"
         xlink:href="#XMLID_532_" />
    </clipPath>
    <rect
       height="23.6"
       width="266.39999"
       y="270"
       x="23.1"
       id="rect7708-1" />
    <rect
       height="23.6"
       width="266.39999"
       y="270"
       x="23.1"
       id="rect7737-0" />
    <clipPath
       id="XMLID_584_-6-2-2-8">
      <use
         height="100%"
         width="100%"
         y="0"
         x="0"
         id="use318-1-6-0-0"
         overflow="visible"
         xlink:href="#XMLID_495_" />
    </clipPath>
    <clipPath
       id="clipPath9099">
      <use
         height="100%"
         width="100%"
         y="0"
         x="0"
         id="use9097"
         overflow="visible"
         xlink:href="#XMLID_495_" />
    </clipPath>
    <clipPath
       id="XMLID_585_-02-5-1-6">
      <use
         height="100%"
         width="100%"
         y="0"
         x="0"
         id="use348-2-1-3-0"
         overflow="visible"
         xlink:href="#XMLID_532_" />
    </clipPath>
    <clipPath
       id="clipPath9105">
      <use
         height="100%"
         width="100%"
         y="0"
         x="0"
         id="use9103"
         overflow="visible"
         xlink:href="#XMLID_532_" />
    </clipPath>
    <rect
       height="23.6"
       width="266.39999"
       y="270"
       x="23.1"
       id="rect7413-1" />
    <rect
       height="23.6"
       width="266.39999"
       y="270"
       x="23.1"
       id="rect7442-7" />
    <clipPath
       id="XMLID_584_-6-2-2-8-2">
      <use
         height="100%"
         width="100%"
         y="0"
         x="0"
         id="use318-1-6-0-0-2"
         overflow="visible"
         xlink:href="#XMLID_495_" />
    </clipPath>
    <clipPath
       id="clipPath9436">
      <use
         height="100%"
         width="100%"
         y="0"
         x="0"
         id="use9434"
         overflow="visible"
         xlink:href="#XMLID_495_" />
    </clipPath>
    <clipPath
       id="XMLID_585_-02-5-1-6-9">
      <use
         height="100%"
         width="100%"
         y="0"
         x="0"
         id="use348-2-1-3-0-1"
         overflow="visible"
         xlink:href="#XMLID_532_" />
    </clipPath>
    <clipPath
       id="clipPath9442">
      <use
         height="100%"
         width="100%"
         y="0"
         x="0"
         id="use9440"
         overflow="visible"
         xlink:href="#XMLID_532_" />
    </clipPath>
    <rect
       height="23.6"
       width="266.39999"
       y="270"
       x="23.1"
       id="rect9258-4" />
    <rect
       height="23.6"
       width="266.39999"
       y="270"
       x="23.1"
       id="rect9287-0" />
    <clipPath
       id="XMLID_584_-6-2-2-8-2-9">
      <use
         height="100%"
         width="100%"
         y="0"
         x="0"
         id="use318-1-6-0-0-2-4"
         overflow="visible"
         xlink:href="#XMLID_495_" />
    </clipPath>
    <clipPath
       id="clipPath9779">
      <use
         height="100%"
         width="100%"
         y="0"
         x="0"
         id="use9777"
         overflow="visible"
         xlink:href="#XMLID_495_" />
    </clipPath>
    <clipPath
       id="XMLID_585_-02-5-1-6-9-6">
      <use
         height="100%"
         width="100%"
         y="0"
         x="0"
         id="use348-2-1-3-0-1-5"
         overflow="visible"
         xlink:href="#XMLID_532_" />
    </clipPath>
    <clipPath
       id="clipPath9785">
      <use
         height="100%"
         width="100%"
         y="0"
         x="0"
         id="use9783"
         overflow="visible"
         xlink:href="#XMLID_532_" />
    </clipPath>
    <rect
       height="23.6"
       width="266.39999"
       y="270"
       x="23.1"
       id="rect9595-8" />
    <rect
       height="23.6"
       width="266.39999"
       y="270"
       x="23.1"
       id="rect9624-8" />
  </defs>
  <g
     id="layer1"
     inkscape:groupmode="layer"
     inkscape:label="Layer 1">
    <g
       transform="matrix(0.26458333,0,0,0.26458333,2.6872229,7.6661074)"
       id="g550">
      <g
         display="none"
         id="XMLID_55_">
        <g
           display="inline"
           id="XMLID_801_">
          <path
             d="m 1098.2,760.5 c 1.6,2.1 2.4,4.8 2.4,8 0,4.4 -1.7,7.7 -5,10.1 -3.4,2.4 -8.3,3.6 -14.7,3.6 h -25.1 v -50.4 h 23.6 c 6,0 10.5,1.2 13.8,3.5 3.2,2.3 4.8,5.5 4.8,9.6 0,2.5 -0.6,4.7 -1.7,6.6 -1.2,1.9 -2.7,3.4 -4.8,4.5 2.8,0.8 5.1,2.4 6.7,4.5 z m -33,-21.4 V 753 h 13.2 c 3.3,0 5.8,-0.6 7.5,-1.8 1.8,-1.2 2.6,-2.9 2.6,-5.1 0,-2.3 -0.9,-4 -2.6,-5.2 -1.8,-1.2 -4.3,-1.8 -7.5,-1.8 z m 26,28.4 c 0,-4.8 -3.6,-7.3 -10.9,-7.3 h -15.1 v 14.5 h 15.1 c 7.3,0.1 10.9,-2.3 10.9,-7.2 z"
             fill="#383535"
             id="XMLID_828_" />
          <path
             d="m 1110.2,735.8 c -1.1,-1 -1.7,-2.3 -1.7,-3.9 0,-1.6 0.6,-2.8 1.7,-3.9 1.1,-1 2.5,-1.5 4.1,-1.5 1.6,0 3,0.5 4.1,1.5 1.1,1 1.7,2.2 1.7,3.7 0,1.6 -0.5,2.9 -1.6,4 -1.1,1.1 -2.5,1.6 -4.1,1.6 -1.7,0 -3.1,-0.5 -4.2,-1.5 z m -0.4,7.9 h 9 v 38.4 h -9 z"
             fill="#383535"
             id="XMLID_825_" />
          <path
             d="m 1137.4,780.1 c -3.1,-1.7 -5.6,-4 -7.3,-7 -1.8,-3 -2.6,-6.4 -2.6,-10.2 0,-3.8 0.9,-7.2 2.6,-10.2 1.8,-3 4.2,-5.3 7.3,-7 3.1,-1.7 6.6,-2.5 10.5,-2.5 3.9,0 7.5,0.8 10.6,2.5 3.1,1.7 5.6,4 7.3,7 1.8,3 2.6,6.4 2.6,10.2 0,3.8 -0.9,7.2 -2.6,10.2 -1.8,3 -4.2,5.3 -7.3,7 -3.1,1.7 -6.6,2.5 -10.6,2.5 -3.9,0 -7.4,-0.8 -10.5,-2.5 z m 18.7,-8.5 c 2.2,-2.2 3.2,-5.1 3.2,-8.7 0,-3.6 -1.1,-6.5 -3.2,-8.7 -2.1,-2.2 -4.9,-3.3 -8.2,-3.3 -3.3,0 -6,1.1 -8.2,3.3 -2.1,2.2 -3.2,5.1 -3.2,8.7 0,3.6 1.1,6.5 3.2,8.7 2.1,2.2 4.9,3.3 8.2,3.3 3.3,0 6,-1.1 8.2,-3.3 z"
             fill="#383535"
             id="XMLID_822_" />
          <path
             d="m 1199.3,743.2 v 8.6 c -0.8,-0.1 -1.5,-0.2 -2.1,-0.2 -3.5,0 -6.2,1 -8.2,3.1 -2,2 -3,5 -3,8.8 v 18.6 h -9 v -38.4 h 8.6 v 5.6 c 2.6,-4 7.1,-6.1 13.7,-6.1 z"
             fill="#383535"
             id="XMLID_820_" />
          <path
             d="m 1213.3,780.1 c -3.1,-1.7 -5.6,-4 -7.3,-7 -1.8,-3 -2.6,-6.4 -2.6,-10.2 0,-3.8 0.9,-7.2 2.6,-10.2 1.8,-3 4.2,-5.3 7.3,-7 3.1,-1.7 6.6,-2.5 10.5,-2.5 3.9,0 7.5,0.8 10.6,2.5 3.1,1.7 5.6,4 7.3,7 1.8,3 2.6,6.4 2.6,10.2 0,3.8 -0.9,7.2 -2.6,10.2 -1.8,3 -4.2,5.3 -7.3,7 -3.1,1.7 -6.6,2.5 -10.6,2.5 -3.9,0 -7.4,-0.8 -10.5,-2.5 z m 18.7,-8.5 c 2.2,-2.2 3.2,-5.1 3.2,-8.7 0,-3.6 -1.1,-6.5 -3.2,-8.7 -2.2,-2.2 -4.9,-3.3 -8.2,-3.3 -3.3,0 -6,1.1 -8.2,3.3 -2.1,2.2 -3.2,5.1 -3.2,8.7 0,3.6 1.1,6.5 3.2,8.7 2.1,2.2 4.9,3.3 8.2,3.3 3.3,0 6.1,-1.1 8.2,-3.3 z"
             fill="#383535"
             id="XMLID_817_" />
          <path
             d="m 1284.3,745.7 c 3,1.6 5.3,3.9 6.9,6.9 1.7,3 2.5,6.4 2.5,10.3 0,3.9 -0.8,7.3 -2.5,10.3 -1.7,3 -4,5.3 -6.9,6.9 -3,1.6 -6.3,2.4 -10,2.4 -2.6,0 -5.1,-0.5 -7.2,-1.4 -2.2,-0.9 -4,-2.3 -5.5,-4.1 v 5 h -8.6 v -53.4 h 9 v 19.7 c 1.5,-1.7 3.3,-3 5.4,-3.8 2.1,-0.8 4.4,-1.3 6.9,-1.3 3.7,0 7.1,0.9 10,2.5 z m -2.8,25.9 c 2.1,-2.2 3.2,-5.1 3.2,-8.7 0,-3.6 -1.1,-6.5 -3.2,-8.7 -2.1,-2.2 -4.9,-3.3 -8.2,-3.3 -2.2,0 -4.1,0.5 -5.8,1.5 -1.7,1 -3.1,2.4 -4.1,4.2 -1,1.8 -1.5,3.9 -1.5,6.3 0,2.4 0.5,4.5 1.5,6.3 1,1.8 2.4,3.2 4.1,4.2 1.7,1 3.7,1.5 5.8,1.5 3.3,0 6,-1.1 8.2,-3.3 z"
             fill="#383535"
             id="XMLID_814_" />
          <path
             d="m 1309.1,780.1 c -3.1,-1.7 -5.6,-4 -7.3,-7 -1.8,-3 -2.6,-6.4 -2.6,-10.2 0,-3.8 0.9,-7.2 2.6,-10.2 1.8,-3 4.2,-5.3 7.3,-7 3.1,-1.7 6.6,-2.5 10.5,-2.5 3.9,0 7.5,0.8 10.6,2.5 3.1,1.7 5.6,4 7.3,7 1.8,3 2.6,6.4 2.6,10.2 0,3.8 -0.9,7.2 -2.6,10.2 -1.8,3 -4.2,5.3 -7.3,7 -3.1,1.7 -6.6,2.5 -10.6,2.5 -3.8,0 -7.3,-0.8 -10.5,-2.5 z m 18.8,-8.5 c 2.2,-2.2 3.2,-5.1 3.2,-8.7 0,-3.6 -1.1,-6.5 -3.2,-8.7 -2.1,-2.2 -4.9,-3.3 -8.2,-3.3 -3.3,0 -6,1.1 -8.2,3.3 -2.1,2.2 -3.2,5.1 -3.2,8.7 0,3.6 1.1,6.5 3.2,8.7 2.1,2.2 4.9,3.3 8.2,3.3 3.3,0 6,-1.1 8.2,-3.3 z"
             fill="#383535"
             id="XMLID_811_" />
          <path
             d="m 1370.4,780 c -1.1,0.9 -2.3,1.5 -3.9,1.9 -1.5,0.4 -3.1,0.6 -4.8,0.6 -4.2,0 -7.5,-1.1 -9.8,-3.3 -2.3,-2.2 -3.5,-5.4 -3.5,-9.6 v -34.5 h 9 v 8.8 h 10.3 v 7.2 h -10.3 v 18.3 c 0,1.9 0.5,3.3 1.4,4.3 0.9,1 2.2,1.5 3.9,1.5 2,0 3.7,-0.5 5,-1.6 z"
             fill="#383535"
             id="XMLID_809_" />
          <path
             d="m 1378.3,735.8 c -1.1,-1 -1.7,-2.3 -1.7,-3.9 0,-1.6 0.6,-2.8 1.7,-3.9 1.1,-1 2.5,-1.5 4.1,-1.5 1.6,0 3,0.5 4.1,1.5 1.1,1 1.7,2.2 1.7,3.7 0,1.6 -0.5,2.9 -1.6,4 -1.1,1.1 -2.5,1.6 -4.1,1.6 -1.8,0 -3.1,-0.5 -4.2,-1.5 z m -0.5,7.9 h 9 v 38.4 h -9 z"
             fill="#383535"
             id="XMLID_806_" />
          <path
             d="m 1405.6,780.1 c -3.2,-1.7 -5.6,-4 -7.4,-7 -1.8,-3 -2.7,-6.4 -2.7,-10.2 0,-3.8 0.9,-7.2 2.7,-10.2 1.8,-3 4.2,-5.3 7.4,-7 3.1,-1.7 6.7,-2.5 10.8,-2.5 3.8,0 7.1,0.8 10,2.3 2.9,1.5 5,3.7 6.4,6.6 l -6.9,4 c -1.1,-1.8 -2.5,-3.1 -4.1,-4 -1.7,-0.9 -3.5,-1.3 -5.4,-1.3 -3.4,0 -6.1,1.1 -8.4,3.3 -2.2,2.2 -3.3,5.1 -3.3,8.7 0,3.6 1.1,6.6 3.3,8.7 2.2,2.2 5,3.3 8.4,3.3 2,0 3.8,-0.4 5.4,-1.3 1.7,-0.9 3,-2.2 4.1,-4 l 6.9,4 c -1.5,2.9 -3.7,5.1 -6.5,6.7 -2.9,1.6 -6.2,2.3 -9.9,2.3 -4.1,0.1 -7.7,-0.7 -10.8,-2.4 z"
             fill="#383535"
             id="XMLID_804_" />
          <path
             d="m 1443.2,781.4 c -3,-0.8 -5.4,-1.8 -7.1,-3.1 l 3.5,-6.8 c 1.7,1.2 3.8,2.1 6.2,2.8 2.4,0.7 4.8,1 7.2,1 5.4,0 8.1,-1.4 8.1,-4.2 0,-1.3 -0.7,-2.3 -2.1,-2.8 -1.4,-0.5 -3.6,-1 -6.6,-1.5 -3.2,-0.5 -5.7,-1 -7.7,-1.7 -2,-0.6 -3.7,-1.7 -5.2,-3.3 -1.5,-1.6 -2.2,-3.7 -2.2,-6.5 0,-3.6 1.5,-6.6 4.6,-8.7 3,-2.2 7.2,-3.3 12.3,-3.3 2.6,0 5.3,0.3 7.9,0.9 2.6,0.6 4.8,1.4 6.5,2.4 l -3.5,6.8 c -3.3,-1.9 -6.9,-2.9 -11,-2.9 -2.6,0 -4.6,0.4 -6,1.2 -1.4,0.8 -2.1,1.8 -2.1,3.1 0,1.4 0.7,2.5 2.2,3.1 1.5,0.6 3.7,1.2 6.8,1.7 3.1,0.5 5.6,1 7.6,1.7 2,0.6 3.7,1.7 5.1,3.2 1.4,1.5 2.1,3.6 2.1,6.3 0,3.6 -1.6,6.5 -4.7,8.6 -3.1,2.2 -7.4,3.2 -12.7,3.2 -3.2,0 -6.2,-0.4 -9.2,-1.2 z"
             fill="#383535"
             id="XMLID_802_" />
        </g>
      </g>
      <g
         display="none"
         transform="translate(106.061,148.5)"
         id="Ortho_0_0_1_">
        <g
           display="inline"
           transform="scale(1,-1)"
           id="XMLID_10_">
          <path
             d="m 919.8,-612.9 -19.4,-19.4 c -0.1,-0.1 -0.3,-0.1 -0.4,0 l -19.4,19.4 c -0.2,0.2 -0.1,0.5 0.2,0.5 h 38.8 c 0.2,0 0.4,-0.3 0.2,-0.5 z"
             fill="#c62f41"
             id="_x36__1_" />
          <path
             d="m 853.3,-590.9 19.4,-19.4 c 0.1,-0.1 0.1,-0.3 0,-0.4 l -19.4,-19.4 c -0.2,-0.2 -0.5,-0.1 -0.5,0.2 v 38.8 c 0,0.2 0.4,0.4 0.5,0.2 z"
             fill="#c62f41"
             id="_x39__1_" />
          <path
             d="m 919.8,-563.7 -19.4,-19.4 c -0.1,-0.1 -0.3,-0.1 -0.4,0 l -19.4,19.4 c -0.2,0.2 -0.1,0.5 0.2,0.5 h 38.8 c 0.2,0 0.4,-0.3 0.2,-0.5 z"
             fill="#383535"
             id="_x31_2_1_" />
          <path
             d="m 919.8,-559 -19.4,19.4 c -0.1,0.1 -0.3,0.1 -0.4,0 L 880.5,-559 c -0.2,-0.2 -0.1,-0.5 0.2,-0.5 h 38.8 c 0.3,0 0.5,0.3 0.3,0.5 z"
             fill="#c42032"
             id="_x31_5_1_" />
          <path
             d="m 877.9,-566.3 19.4,-19.4 c 0.1,-0.1 0.1,-0.3 0,-0.4 l -19.4,-19.4 c -0.2,-0.2 -0.5,-0.1 -0.5,0.2 v 38.8 c 0,0.2 0.3,0.4 0.5,0.2 z"
             fill="#c62f41"
             id="_x31_8_1_" />
          <path
             d="m 919.8,-608.2 -19.4,19.4 c -0.1,0.1 -0.3,0.1 -0.4,0 l -19.4,-19.4 c -0.2,-0.2 -0.1,-0.5 0.2,-0.5 h 38.8 c 0.2,0 0.4,0.3 0.2,0.5 z"
             fill="#383535"
             id="_x32_1_1_" />
          <path
             d="m 895.2,-632.8 -19.4,19.4 c -0.1,0.1 -0.3,0.1 -0.4,0 L 856,-632.8 c -0.2,-0.2 -0.1,-0.5 0.2,-0.5 H 895 c 0.2,0 0.4,0.4 0.2,0.5 z"
             fill="#383535"
             id="_x32_4_1_" />
          <path
             d="m 865.5,-580.5 7.7,7.7 c 0.2,0.2 0.5,0.1 0.5,-0.2 v -15.4 c 0,-0.2 -0.1,-0.3 -0.3,-0.3 h -20.2 c -0.2,0 -0.3,0.1 -0.3,0.3 v 20.2 c 0,0.2 0.1,0.3 0.3,0.3 h 15.4 c 0.3,0 0.4,-0.3 0.2,-0.5 l -7.7,-7.7 c -1.5,-1.5 -1.2,-4 0.8,-5.1 1.2,-0.6 2.6,-0.3 3.6,0.7 z"
             fill="#383535"
             id="_x33_1_1_" />
          <path
             d="m 895.2,-539.1 -19.4,-19.4 c -0.1,-0.1 -0.3,-0.1 -0.4,0 l -19.4,19.4 c -0.2,0.2 -0.1,0.5 0.2,0.5 H 895 c 0.2,0 0.4,-0.4 0.2,-0.5 z m -19.8,-9.5 c 1.7,0 3.1,1.4 3.1,3.1 0,1.7 -1.4,3.1 -3.1,3.1 -1.7,0 -3.1,-1.4 -3.1,-3.1 0,-1.7 1.4,-3.1 3.1,-3.1 z"
             fill="#383535"
             id="XMLID_12_" />
        </g>
      </g>
      <g
         display="none"
         transform="translate(106.061,148.5)"
         id="Ortho_0_0_2_">
        <g
           display="inline"
           transform="scale(1,-1)"
           id="XMLID_11_">
          <path
             d="m 1202.6,-312.8 -47.8,-47.8 c -0.3,-0.3 -0.7,-0.3 -1,0 l -47.8,47.8 c -0.5,0.5 -0.1,1.2 0.5,1.2 h 95.5 c 0.7,0 1.1,-0.8 0.6,-1.2 z"
             fill="#c42032"
             id="_x36__2_" />
          <path
             d="m 1039.1,-258.8 47.8,-47.8 c 0.3,-0.3 0.3,-0.7 0,-1 l -47.8,-47.8 c -0.5,-0.5 -1.2,-0.1 -1.2,0.5 v 95.5 c 0,0.8 0.8,1.1 1.2,0.6 z"
             fill="#c42032"
             id="_x39__2_" />
          <path
             d="m 1202.6,-191.9 -47.8,-47.8 c -0.3,-0.3 -0.7,-0.3 -1,0 l -47.8,47.8 c -0.5,0.5 -0.1,1.2 0.5,1.2 h 95.5 c 0.7,0.1 1.1,-0.7 0.6,-1.2 z"
             fill="#383535"
             id="_x31_2_2_" />
          <path
             d="m 1202.6,-180.3 -47.8,47.8 c -0.3,0.3 -0.7,0.3 -1,0 l -47.8,-47.8 c -0.5,-0.5 -0.1,-1.2 0.5,-1.2 h 95.5 c 0.7,-0.1 1.1,0.7 0.6,1.2 z"
             fill="#c42032"
             id="_x31_5_2_" />
          <path
             d="m 1099.6,-198.3 47.8,-47.8 c 0.3,-0.3 0.3,-0.7 0,-1 l -47.8,-47.8 c -0.5,-0.5 -1.2,-0.1 -1.2,0.5 v 95.5 c 0,0.8 0.7,1.1 1.2,0.6 z"
             fill="#c42032"
             id="_x31_8_2_" />
          <path
             d="m 1202.6,-301.3 -47.8,47.8 c -0.3,0.3 -0.7,0.3 -1,0 l -47.8,-47.8 c -0.5,-0.5 -0.1,-1.2 0.5,-1.2 h 95.5 c 0.7,0 1.1,0.8 0.6,1.2 z"
             fill="#383535"
             id="_x32_1_2_" />
          <path
             d="m 1142.1,-361.8 -47.8,47.8 c -0.3,0.3 -0.7,0.3 -1,0 l -47.8,-47.8 c -0.5,-0.5 -0.1,-1.2 0.5,-1.2 h 95.5 c 0.7,0 1.1,0.8 0.6,1.2 z"
             fill="#383535"
             id="_x32_4_2_" />
          <path
             d="m 1069.1,-233.2 18.9,18.9 c 0.5,0.5 1.2,0.1 1.2,-0.5 v -37.8 c 0,-0.4 -0.3,-0.7 -0.7,-0.7 h -49.8 c -0.4,0 -0.7,0.3 -0.7,0.7 v 49.8 c 0,0.4 0.3,0.7 0.7,0.7 h 37.9 c 0.6,0 1,-0.8 0.5,-1.2 l -18.9,-18.9 c -3.6,-3.6 -2.9,-9.9 2,-12.4 2.9,-1.7 6.5,-1 8.9,1.4 z"
             fill="#383535"
             id="_x33_1_2_" />
          <path
             d="m 1142.1,-131.4 -47.8,-47.8 c -0.3,-0.3 -0.7,-0.3 -1,0 l -47.8,47.8 c -0.5,0.5 -0.1,1.2 0.5,1.2 h 95.5 c 0.7,0.1 1.1,-0.7 0.6,-1.2 z m -48.7,-23.3 c 4.2,0 7.6,3.4 7.6,7.6 0,4.2 -3.4,7.6 -7.6,7.6 -4.2,0 -7.6,-3.4 -7.6,-7.6 0,-4.2 3.5,-7.6 7.6,-7.6 z"
             fill="#383535"
             id="XMLID_16_" />
        </g>
      </g>
      <g
         display="none"
         id="XMLID_6_">
        <g
           display="inline"
           id="XMLID_833_">
          <path
             d="m 1096.1,563.8 c 1.2,1.5 1.7,3.4 1.7,5.7 0,3.1 -1.2,5.5 -3.6,7.2 -2.4,1.7 -5.9,2.5 -10.5,2.5 h -17.9 v -36 h 16.9 c 4.2,0 7.5,0.8 9.8,2.5 2.3,1.7 3.4,3.9 3.4,6.9 0,1.8 -0.4,3.4 -1.2,4.7 -0.8,1.4 -2,2.4 -3.4,3.2 2.1,0.7 3.7,1.8 4.8,3.3 z m -23.5,-15.3 v 9.9 h 9.5 c 2.3,0 4.1,-0.4 5.4,-1.3 1.3,-0.8 1.9,-2.1 1.9,-3.7 0,-1.6 -0.6,-2.9 -1.9,-3.7 -1.3,-0.8 -3,-1.3 -5.4,-1.3 h -9.5 z m 18.5,20.3 c 0,-3.5 -2.6,-5.2 -7.8,-5.2 h -10.8 V 574 h 10.8 c 5.2,0 7.8,-1.7 7.8,-5.2 z"
             fill="#383535"
             id="XMLID_860_" />
          <path
             d="m 1104.7,546.2 c -0.8,-0.7 -1.2,-1.7 -1.2,-2.7 0,-1.1 0.4,-2 1.2,-2.7 0.8,-0.7 1.8,-1.1 2.9,-1.1 1.2,0 2.1,0.4 2.9,1.1 0.8,0.7 1.2,1.6 1.2,2.6 0,1.1 -0.4,2.1 -1.2,2.9 -0.8,0.8 -1.8,1.2 -3,1.2 -1,-0.2 -2,-0.6 -2.8,-1.3 z m -0.3,5.6 h 6.4 v 27.4 h -6.4 z"
             fill="#383535"
             id="XMLID_857_" />
          <path
             d="m 1124.1,577.8 c -2.2,-1.2 -4,-2.9 -5.2,-5 -1.3,-2.1 -1.9,-4.6 -1.9,-7.3 0,-2.7 0.6,-5.1 1.9,-7.2 1.3,-2.1 3,-3.8 5.2,-5 2.2,-1.2 4.7,-1.8 7.5,-1.8 2.8,0 5.3,0.6 7.6,1.8 2.2,1.2 4,2.9 5.2,5 1.3,2.1 1.9,4.5 1.9,7.2 0,2.7 -0.6,5.1 -1.9,7.3 -1.3,2.1 -3,3.8 -5.2,5 -2.2,1.2 -4.7,1.8 -7.6,1.8 -2.8,0 -5.3,-0.6 -7.5,-1.8 z m 13.3,-6 c 1.5,-1.6 2.3,-3.6 2.3,-6.2 0,-2.6 -0.8,-4.6 -2.3,-6.2 -1.5,-1.6 -3.5,-2.4 -5.9,-2.4 -2.4,0 -4.3,0.8 -5.8,2.4 -1.5,1.6 -2.3,3.6 -2.3,6.2 0,2.6 0.8,4.6 2.3,6.2 1.5,1.6 3.5,2.4 5.8,2.4 2.4,-0.1 4.4,-0.9 5.9,-2.4 z"
             fill="#383535"
             id="XMLID_854_" />
          <path
             d="m 1168.3,551.5 v 6.1 c -0.5,-0.1 -1,-0.2 -1.5,-0.2 -2.5,0 -4.5,0.7 -5.9,2.2 -1.4,1.5 -2.1,3.6 -2.1,6.3 v 13.3 h -6.4 v -27.4 h 6.1 v 4 c 1.8,-2.9 5.1,-4.3 9.8,-4.3 z"
             fill="#383535"
             id="XMLID_852_" />
          <path
             d="m 1178.3,577.8 c -2.2,-1.2 -4,-2.9 -5.2,-5 -1.3,-2.1 -1.9,-4.6 -1.9,-7.3 0,-2.7 0.6,-5.1 1.9,-7.2 1.3,-2.1 3,-3.8 5.2,-5 2.2,-1.2 4.7,-1.8 7.5,-1.8 2.8,0 5.3,0.6 7.6,1.8 2.2,1.2 4,2.9 5.2,5 1.3,2.1 1.9,4.5 1.9,7.2 0,2.7 -0.6,5.1 -1.9,7.3 -1.3,2.1 -3,3.8 -5.2,5 -2.2,1.2 -4.7,1.8 -7.6,1.8 -2.8,0 -5.3,-0.6 -7.5,-1.8 z m 13.3,-6 c 1.5,-1.6 2.3,-3.6 2.3,-6.2 0,-2.6 -0.8,-4.6 -2.3,-6.2 -1.5,-1.6 -3.5,-2.4 -5.9,-2.4 -2.4,0 -4.3,0.8 -5.8,2.4 -1.5,1.6 -2.3,3.6 -2.3,6.2 0,2.6 0.8,4.6 2.3,6.2 1.5,1.6 3.5,2.4 5.8,2.4 2.5,-0.1 4.4,-0.9 5.9,-2.4 z"
             fill="#383535"
             id="XMLID_849_" />
          <path
             d="m 1229,553.3 c 2.1,1.2 3.8,2.8 5,4.9 1.2,2.1 1.8,4.6 1.8,7.3 0,2.7 -0.6,5.2 -1.8,7.4 -1.2,2.1 -2.9,3.8 -5,5 -2.1,1.2 -4.5,1.7 -7.2,1.7 -1.9,0 -3.6,-0.3 -5.2,-1 -1.6,-0.7 -2.9,-1.6 -3.9,-2.9 v 3.5 h -6.1 v -38.1 h 6.4 v 14 c 1.1,-1.2 2.4,-2.1 3.9,-2.7 1.5,-0.6 3.1,-0.9 4.9,-0.9 2.7,0 5.1,0.6 7.2,1.8 z m -2.1,18.5 c 1.5,-1.6 2.3,-3.6 2.3,-6.2 0,-2.6 -0.8,-4.6 -2.3,-6.2 -1.5,-1.6 -3.5,-2.4 -5.8,-2.4 -1.5,0 -2.9,0.4 -4.2,1.1 -1.2,0.7 -2.2,1.7 -2.9,3 -0.7,1.3 -1.1,2.8 -1.1,4.5 0,1.7 0.4,3.2 1.1,4.5 0.7,1.3 1.7,2.3 2.9,3 1.2,0.7 2.6,1.1 4.2,1.1 2.4,-0.1 4.3,-0.9 5.8,-2.4 z"
             fill="#383535"
             id="XMLID_846_" />
          <path
             d="m 1246.7,577.8 c -2.2,-1.2 -4,-2.9 -5.2,-5 -1.3,-2.1 -1.9,-4.6 -1.9,-7.3 0,-2.7 0.6,-5.1 1.9,-7.2 1.3,-2.1 3,-3.8 5.2,-5 2.2,-1.2 4.7,-1.8 7.5,-1.8 2.8,0 5.3,0.6 7.6,1.8 2.2,1.2 4,2.9 5.2,5 1.3,2.1 1.9,4.5 1.9,7.2 0,2.7 -0.6,5.1 -1.9,7.3 -1.3,2.1 -3,3.8 -5.2,5 -2.2,1.2 -4.7,1.8 -7.6,1.8 -2.8,0 -5.3,-0.6 -7.5,-1.8 z m 13.3,-6 c 1.5,-1.6 2.3,-3.6 2.3,-6.2 0,-2.6 -0.8,-4.6 -2.3,-6.2 -1.5,-1.6 -3.5,-2.4 -5.9,-2.4 -2.4,0 -4.3,0.8 -5.8,2.4 -1.5,1.6 -2.3,3.6 -2.3,6.2 0,2.6 0.8,4.6 2.3,6.2 1.5,1.6 3.5,2.4 5.8,2.4 2.4,-0.1 4.4,-0.9 5.9,-2.4 z"
             fill="#383535"
             id="XMLID_843_" />
          <path
             d="m 1290.4,577.8 c -0.8,0.6 -1.7,1.1 -2.7,1.4 -1.1,0.3 -2.2,0.5 -3.4,0.5 -3,0 -5.3,-0.8 -7,-2.4 -1.6,-1.6 -2.5,-3.9 -2.5,-6.9 v -24.6 h 6.4 v 6.3 h 7.3 v 5.1 h -7.3 v 13.1 c 0,1.3 0.3,2.4 1,3.1 0.7,0.7 1.6,1.1 2.8,1.1 1.4,0 2.6,-0.4 3.6,-1.1 z"
             fill="#383535"
             id="XMLID_841_" />
          <path
             d="m 1296,546.2 c -0.8,-0.7 -1.2,-1.7 -1.2,-2.7 0,-1.1 0.4,-2 1.2,-2.7 0.8,-0.7 1.8,-1.1 2.9,-1.1 1.2,0 2.1,0.4 2.9,1.1 0.8,0.7 1.2,1.6 1.2,2.6 0,1.1 -0.4,2.1 -1.2,2.9 -0.8,0.8 -1.8,1.2 -3,1.2 -1,-0.2 -2,-0.6 -2.8,-1.3 z m -0.3,5.6 h 6.4 v 27.4 h -6.4 z"
             fill="#383535"
             id="XMLID_838_" />
          <path
             d="m 1315.5,577.8 c -2.3,-1.2 -4,-2.9 -5.3,-5 -1.3,-2.1 -1.9,-4.6 -1.9,-7.3 0,-2.7 0.6,-5.1 1.9,-7.2 1.3,-2.1 3,-3.8 5.3,-5 2.2,-1.2 4.8,-1.8 7.7,-1.8 2.7,0 5.1,0.5 7.1,1.6 2,1.1 3.6,2.7 4.6,4.7 l -4.9,2.9 c -0.8,-1.3 -1.8,-2.2 -3,-2.9 -1.2,-0.6 -2.5,-1 -3.9,-1 -2.4,0 -4.4,0.8 -6,2.3 -1.6,1.6 -2.4,3.6 -2.4,6.2 0,2.6 0.8,4.7 2.3,6.2 1.6,1.6 3.6,2.3 6,2.3 1.4,0 2.7,-0.3 3.9,-1 1.2,-0.6 2.2,-1.6 3,-2.9 l 4.9,2.9 c -1.1,2.1 -2.6,3.6 -4.7,4.8 -2,1.1 -4.4,1.7 -7.1,1.7 -2.7,0.3 -5.2,-0.3 -7.5,-1.5 z"
             fill="#383535"
             id="XMLID_836_" />
          <path
             d="m 1342.4,578.7 c -2.1,-0.6 -3.8,-1.3 -5.1,-2.2 l 2.5,-4.9 c 1.2,0.8 2.7,1.5 4.4,2 1.7,0.5 3.4,0.7 5.1,0.7 3.8,0 5.8,-1 5.8,-3 0,-1 -0.5,-1.6 -1.5,-2 -1,-0.4 -2.5,-0.7 -4.7,-1.1 -2.3,-0.3 -4.1,-0.7 -5.5,-1.2 -1.4,-0.4 -2.7,-1.2 -3.7,-2.3 -1,-1.1 -1.6,-2.7 -1.6,-4.7 0,-2.6 1.1,-4.7 3.3,-6.2 2.2,-1.6 5.1,-2.3 8.8,-2.3 1.9,0 3.8,0.2 5.7,0.6 1.9,0.4 3.4,1 4.6,1.7 l -2.5,4.9 c -2.3,-1.4 -5,-2.1 -7.9,-2.1 -1.9,0 -3.3,0.3 -4.3,0.8 -1,0.6 -1.5,1.3 -1.5,2.2 0,1 0.5,1.8 1.6,2.2 1,0.4 2.7,0.8 4.9,1.2 2.2,0.3 4,0.7 5.4,1.2 1.4,0.4 2.6,1.2 3.6,2.3 1,1.1 1.5,2.6 1.5,4.5 0,2.6 -1.1,4.6 -3.3,6.2 -2.2,1.5 -5.3,2.3 -9.1,2.3 -2.2,0.1 -4.4,-0.2 -6.5,-0.8 z"
             fill="#383535"
             id="XMLID_834_" />
        </g>
      </g>
      <g
         display="none"
         id="XMLID_2_">
        <path
           d="m 348.5,759.9 c 1.6,2.1 2.4,4.8 2.4,8 0,4.4 -1.7,7.7 -5,10.1 -3.4,2.4 -8.3,3.6 -14.7,3.6 h -25.1 v -50.4 h 23.6 c 6,0 10.5,1.2 13.8,3.5 3.2,2.3 4.8,5.5 4.8,9.6 0,2.5 -0.6,4.7 -1.7,6.6 -1.2,1.9 -2.7,3.4 -4.8,4.5 2.9,0.8 5.1,2.3 6.7,4.5 z m -33,-21.5 v 13.9 h 13.2 c 3.3,0 5.8,-0.6 7.5,-1.8 1.8,-1.2 2.6,-2.9 2.6,-5.1 0,-2.3 -0.9,-4 -2.6,-5.2 -1.8,-1.2 -4.3,-1.8 -7.5,-1.8 z m 26,28.5 c 0,-4.8 -3.6,-7.3 -10.9,-7.3 h -15.1 v 14.5 h 15.1 c 7.3,0.1 10.9,-2.4 10.9,-7.2 z"
           display="inline"
           id="XMLID_3_" />
        <path
           d="m 360.5,735.2 c -1.1,-1 -1.7,-2.3 -1.7,-3.9 0,-1.6 0.6,-2.8 1.7,-3.9 1.1,-1 2.5,-1.5 4.1,-1.5 1.6,0 3,0.5 4.1,1.5 1.1,1 1.7,2.2 1.7,3.7 0,1.6 -0.5,2.9 -1.6,4 -1.1,1.1 -2.5,1.6 -4.1,1.6 -1.7,0 -3.1,-0.5 -4.2,-1.5 z m -0.4,7.9 h 9 v 38.4 h -9 z"
           display="inline"
           id="XMLID_15_" />
        <path
           d="m 387.7,779.5 c -3.1,-1.7 -5.6,-4 -7.3,-7 -1.8,-3 -2.6,-6.4 -2.6,-10.2 0,-3.8 0.9,-7.2 2.6,-10.2 1.8,-3 4.2,-5.3 7.3,-7 3.1,-1.7 6.6,-2.5 10.5,-2.5 3.9,0 7.5,0.8 10.6,2.5 3.1,1.7 5.6,4 7.3,7 1.8,3 2.6,6.4 2.6,10.2 0,3.8 -0.9,7.2 -2.6,10.2 -1.8,3 -4.2,5.3 -7.3,7 -3.1,1.7 -6.6,2.5 -10.6,2.5 -3.9,0 -7.4,-0.8 -10.5,-2.5 z m 18.7,-8.5 c 2.2,-2.2 3.2,-5.1 3.2,-8.7 0,-3.6 -1.1,-6.5 -3.2,-8.7 -2.2,-2.2 -4.9,-3.3 -8.2,-3.3 -3.3,0 -6,1.1 -8.2,3.3 -2.1,2.2 -3.2,5.1 -3.2,8.7 0,3.6 1.1,6.5 3.2,8.7 2.1,2.2 4.9,3.3 8.2,3.3 3.3,0 6,-1.1 8.2,-3.3 z"
           display="inline"
           id="XMLID_280_" />
        <path
           d="m 449.6,742.6 v 8.6 c -0.8,-0.1 -1.5,-0.2 -2.1,-0.2 -3.5,0 -6.2,1 -8.2,3.1 -2,2 -3,5 -3,8.8 v 18.6 h -9 v -38.4 h 8.6 v 5.6 c 2.6,-4.1 7.2,-6.1 13.7,-6.1 z"
           display="inline"
           id="XMLID_350_" />
        <path
           d="m 463.6,779.5 c -3.1,-1.7 -5.6,-4 -7.3,-7 -1.8,-3 -2.6,-6.4 -2.6,-10.2 0,-3.8 0.9,-7.2 2.6,-10.2 1.8,-3 4.2,-5.3 7.3,-7 3.1,-1.7 6.6,-2.5 10.5,-2.5 3.9,0 7.5,0.8 10.6,2.5 3.1,1.7 5.6,4 7.3,7 1.8,3 2.6,6.4 2.6,10.2 0,3.8 -0.9,7.2 -2.6,10.2 -1.8,3 -4.2,5.3 -7.3,7 -3.1,1.7 -6.6,2.5 -10.6,2.5 -3.8,0 -7.3,-0.8 -10.5,-2.5 z m 18.8,-8.5 c 2.2,-2.2 3.2,-5.1 3.2,-8.7 0,-3.6 -1.1,-6.5 -3.2,-8.7 -2.2,-2.2 -4.9,-3.3 -8.2,-3.3 -3.3,0 -6,1.1 -8.2,3.3 -2.1,2.2 -3.2,5.1 -3.2,8.7 0,3.6 1.1,6.5 3.2,8.7 2.1,2.2 4.9,3.3 8.2,3.3 3.3,0 6,-1.1 8.2,-3.3 z"
           display="inline"
           id="XMLID_355_" />
        <path
           d="m 534.7,745.1 c 3,1.6 5.3,3.9 6.9,6.9 1.7,3 2.5,6.4 2.5,10.3 0,3.9 -0.8,7.3 -2.5,10.3 -1.7,3 -4,5.3 -6.9,6.9 -3,1.6 -6.3,2.4 -10,2.4 -2.6,0 -5.1,-0.5 -7.2,-1.4 -2.2,-0.9 -4,-2.3 -5.5,-4.1 v 5 h -8.6 V 728 h 9 v 19.7 c 1.5,-1.7 3.3,-3 5.4,-3.8 2.1,-0.8 4.4,-1.3 6.9,-1.3 3.7,0 7,0.8 10,2.5 z m -2.9,25.9 c 2.1,-2.2 3.2,-5.1 3.2,-8.7 0,-3.6 -1.1,-6.5 -3.2,-8.7 -2.1,-2.2 -4.9,-3.3 -8.2,-3.3 -2.2,0 -4.1,0.5 -5.8,1.5 -1.7,1 -3.1,2.4 -4.1,4.2 -1,1.8 -1.5,3.9 -1.5,6.3 0,2.4 0.5,4.5 1.5,6.3 1,1.8 2.4,3.2 4.1,4.2 1.7,1 3.7,1.5 5.8,1.5 3.3,0 6,-1.1 8.2,-3.3 z"
           display="inline"
           id="XMLID_360_" />
        <path
           d="m 559.5,779.5 c -3.1,-1.7 -5.6,-4 -7.3,-7 -1.8,-3 -2.6,-6.4 -2.6,-10.2 0,-3.8 0.9,-7.2 2.6,-10.2 1.8,-3 4.2,-5.3 7.3,-7 3.1,-1.7 6.6,-2.5 10.5,-2.5 3.9,0 7.5,0.8 10.6,2.5 3.1,1.7 5.6,4 7.3,7 1.8,3 2.6,6.4 2.6,10.2 0,3.8 -0.9,7.2 -2.6,10.2 -1.8,3 -4.2,5.3 -7.3,7 -3.1,1.7 -6.6,2.5 -10.6,2.5 -3.9,0 -7.4,-0.8 -10.5,-2.5 z m 18.7,-8.5 c 2.2,-2.2 3.2,-5.1 3.2,-8.7 0,-3.6 -1.1,-6.5 -3.2,-8.7 -2.1,-2.2 -4.9,-3.3 -8.2,-3.3 -3.3,0 -6,1.1 -8.2,3.3 -2.1,2.2 -3.2,5.1 -3.2,8.7 0,3.6 1.1,6.5 3.2,8.7 2.1,2.2 4.9,3.3 8.2,3.3 3.3,0 6,-1.1 8.2,-3.3 z"
           display="inline"
           id="XMLID_389_" />
        <path
           d="m 620.7,779.4 c -1.1,0.9 -2.3,1.5 -3.9,1.9 -1.5,0.4 -3.1,0.6 -4.8,0.6 -4.2,0 -7.5,-1.1 -9.8,-3.3 -2.3,-2.2 -3.5,-5.4 -3.5,-9.6 v -34.5 h 9 v 8.8 H 618 v 7.2 h -10.3 v 18.3 c 0,1.9 0.5,3.3 1.4,4.3 0.9,1 2.2,1.5 3.9,1.5 2,0 3.7,-0.5 5,-1.6 z"
           display="inline"
           id="XMLID_392_" />
        <path
           d="m 628.6,735.2 c -1.1,-1 -1.7,-2.3 -1.7,-3.9 0,-1.6 0.6,-2.8 1.7,-3.9 1.1,-1 2.5,-1.5 4.1,-1.5 1.6,0 3,0.5 4.1,1.5 1.1,1 1.7,2.2 1.7,3.7 0,1.6 -0.5,2.9 -1.6,4 -1.1,1.1 -2.5,1.6 -4.1,1.6 -1.7,0 -3.1,-0.5 -4.2,-1.5 z m -0.4,7.9 h 9 v 38.4 h -9 z"
           display="inline"
           id="XMLID_396_" />
        <path
           d="m 655.9,779.5 c -3.2,-1.7 -5.6,-4 -7.4,-7 -1.8,-3 -2.7,-6.4 -2.7,-10.2 0,-3.8 0.9,-7.2 2.7,-10.2 1.8,-3 4.2,-5.3 7.4,-7 3.1,-1.7 6.7,-2.5 10.8,-2.5 3.8,0 7.1,0.8 10,2.3 2.9,1.5 5,3.7 6.4,6.6 l -6.9,4 c -1.1,-1.8 -2.5,-3.1 -4.1,-4 -1.7,-0.9 -3.5,-1.3 -5.4,-1.3 -3.4,0 -6.1,1.1 -8.4,3.3 -2.2,2.2 -3.3,5.1 -3.3,8.7 0,3.6 1.1,6.6 3.3,8.7 2.2,2.2 5,3.3 8.4,3.3 2,0 3.8,-0.4 5.4,-1.3 1.7,-0.9 3,-2.2 4.1,-4 l 6.9,4 c -1.5,2.9 -3.7,5.1 -6.5,6.7 -2.9,1.6 -6.2,2.3 -9.9,2.3 -4.1,0.1 -7.7,-0.7 -10.8,-2.4 z"
           display="inline"
           id="XMLID_401_" />
        <path
           d="m 693.5,780.8 c -3,-0.8 -5.4,-1.8 -7.1,-3.1 l 3.5,-6.8 c 1.7,1.2 3.8,2.1 6.2,2.8 2.4,0.7 4.8,1 7.2,1 5.4,0 8.1,-1.4 8.1,-4.2 0,-1.3 -0.7,-2.3 -2.1,-2.8 -1.4,-0.5 -3.6,-1 -6.6,-1.5 -3.2,-0.5 -5.7,-1 -7.7,-1.7 -2,-0.6 -3.7,-1.7 -5.2,-3.3 -1.5,-1.6 -2.2,-3.7 -2.2,-6.5 0,-3.6 1.5,-6.6 4.6,-8.7 3,-2.2 7.2,-3.3 12.3,-3.3 2.6,0 5.3,0.3 7.9,0.9 2.6,0.6 4.8,1.4 6.5,2.4 l -3.5,6.8 c -3.3,-1.9 -6.9,-2.9 -11,-2.9 -2.6,0 -4.6,0.4 -6,1.2 -1.4,0.8 -2.1,1.8 -2.1,3.1 0,1.4 0.7,2.5 2.2,3.1 1.5,0.6 3.7,1.2 6.8,1.7 3.1,0.5 5.6,1 7.6,1.7 2,0.6 3.7,1.7 5.1,3.2 1.4,1.5 2.1,3.6 2.1,6.3 0,3.6 -1.6,6.5 -4.7,8.6 -3.1,2.2 -7.4,3.2 -12.7,3.2 -3.1,0 -6.2,-0.4 -9.2,-1.2 z"
           display="inline"
           id="XMLID_403_" />
      </g>
      <g
         display="none"
         id="XMLID_289_">
        <g
           id="g262"
           display="inline">
          <defs
             id="defs255">
            <rect
               height="36.700001"
               width="414.60001"
               y="687"
               x="306"
               id="rect443" />
          </defs>
          <clipPath
             id="XMLID_582_">
            <use
               height="100%"
               width="100%"
               y="0"
               x="0"
               id="use257"
               overflow="visible"
               xlink:href="#XMLID_456_" />
          </clipPath>
          <polygon
             points="419.9,714 419.9,713 422.5,713 422.5,698.8 420.5,698.8 420.5,697.7 427.6,697.7 427.6,713 430.1,713 430.1,714 "
             fill="#c41230"
             clip-path="url(#XMLID_582_)"
             id="XMLID_458_" />
          <path
             d="m 327,687.8 h -0.9 c 0,0.8 -0.4,1.1 -1.2,1.1 -1.6,0 -3.9,-1.9 -6.6,-1.9 -7.7,0 -12.3,7.6 -12.3,14.2 0,6.7 4.4,13.3 11.8,13.3 4.5,0 6.2,-2.1 7.4,-2.1 0.8,0 0.9,0.7 0.9,1.5 h 1 v -9.2 h -1 l -0.2,1.3 c -0.5,3 -2.9,7.5 -7.7,7.5 -4.3,0 -5.9,-3.7 -5.9,-12.8 0,-9.5 2.2,-12.8 6,-12.8 4.3,0 7.2,4.8 7.8,8.6 h 0.9 z"
             fill="#c41230"
             clip-path="url(#XMLID_582_)"
             id="XMLID_457_" />
        </g>
        <path
           id="path264"
           d="m 346.9,710.8 c 0,1 -0.6,2.1 -1,2.1 -0.7,0 -0.8,-0.7 -0.8,-1.8 v -8.5 c 0,-4.2 -3.9,-5.2 -7.7,-5.2 -3.7,0 -6.4,1.8 -6.4,3.9 0,1.3 0.7,2.4 2.4,2.4 1.4,0 2.2,-0.9 2.2,-2.2 0,-1.9 -1.9,-1.9 -1.9,-1.9 0,-0.8 2.2,-1.1 3.4,-1.1 2.8,0 3.1,1 3.1,3.2 v 3.1 l -3.6,0.3 c -3.4,0.3 -7,1.1 -7,5 0,3.2 2.9,4.5 5.7,4.5 1.4,0 4,-0.6 4.9,-2.3 0.7,1.6 2,2.3 3.7,2.3 2.4,0 3.9,-1.4 3.9,-3.6 h -0.9 z m -6.8,-1.2 c -0.1,2 -1.2,3.6 -2.9,3.6 -2.5,0 -2.6,-2.1 -2.6,-3.7 0,-2 0.2,-3.2 2.6,-3.5 l 2.9,-0.3 z"
           fill="#c41230"
           display="inline" />
        <polygon
           points="682.4,713.9 682.4,712.9 684.9,712.9 684.9,698.7 682.4,698.7 682.4,697.6 690,697.6 690,712.9 692.6,712.9 692.6,713.9 "
           fill="#c41230"
           display="inline"
           id="XMLID_453_" />
        <path
           d="m 468.8,705.5 6.1,-17.5 h 8.4 v 1 h -2.4 v 24 h 2.4 v 1 h -10.1 v -1 h 2.5 v -23.6 h -0.1 L 467,714 h -1 l -8.8,-25.1 h -0.1 v 20.9 c 0,3 0.8,3.1 2.8,3.1 h 0.1 v 1 h -6.4 v -1 0 c 2.1,0 2.5,-1.2 2.5,-2.8 V 689 h -2.5 v -1 h 9.3 z"
           fill="#c41230"
           display="inline"
           id="XMLID_452_" />
        <path
           id="path268"
           d="m 489.2,705 h 10.2 c 0,-4 -3.7,-7.8 -7.6,-7.7 -4.4,0 -8.1,3.8 -8.1,8.7 0,4.8 3.5,8.4 8.2,8.4 4.5,0 6.8,-2.8 7.6,-6.5 h -1 c -0.8,3.4 -2.6,5.4 -5.5,5.4 -3.4,0 -3.8,-2.7 -3.8,-5.2 z m 0,-1 v -2.5 c 0,-2.5 1.1,-3.2 2.3,-3.2 1.8,0 2.3,1.2 2.3,3.2 v 2.5 z"
           fill="#c41230"
           display="inline" />
        <path
           id="path270"
           d="m 642.5,705 h 10.2 c 0,-4 -3.7,-7.8 -7.6,-7.7 -4.4,0 -8.1,3.8 -8.1,8.7 0,4.8 3.5,8.4 8.2,8.4 4.5,0 6.8,-2.8 7.6,-6.5 h -1 c -0.8,3.4 -2.6,5.4 -5.5,5.4 -3.4,0 -3.8,-2.7 -3.8,-5.2 z m 0,-1 v -2.5 c 0,-2.5 1.1,-3.2 2.3,-3.2 1.8,0 2.3,1.2 2.3,3.2 v 2.5 z"
           fill="#c41230"
           display="inline" />
        <polygon
           points="499.5,712.9 499.5,714 509.7,714 509.7,712.9 507.1,712.9 507.1,688.1 499.5,688.1 499.5,689 502,689 502,712.9 "
           fill="#c41230"
           display="inline"
           id="XMLID_447_" />
        <polygon
           points="510.4,712.9 510.4,714 520.6,714 520.6,712.9 518,712.9 518,688.1 510.4,688.1 510.4,689 512.9,689 512.9,712.9 "
           fill="#c41230"
           display="inline"
           id="XMLID_446_" />
        <path
           id="path274"
           d="m 538,705.9 c 0,-5.1 -3.9,-8.6 -8.8,-8.6 -4.9,0 -8.8,3.5 -8.8,8.6 0,5.1 3.9,8.6 8.8,8.6 4.9,-0.1 8.8,-3.6 8.8,-8.6 m -5.7,3.6 c 0,2.8 -1.1,3.9 -3,3.9 -1.9,0 -3,-1.1 -3,-3.9 v -7.3 c 0,-2.8 1.1,-3.9 3,-3.9 1.9,0 3,1.1 3,3.9 z"
           fill="#c41230"
           display="inline" />
        <path
           d="m 564.5,688.9 h 2.6 v 16.4 c 0,5.7 3.9,9.2 10,9.2 6.8,0 9.7,-3.6 9.7,-9 v -14 c 0,-2.1 0.6,-2.6 1.9,-2.6 h 0.7 v -1 H 583 v 1 h 0.5 c 1.9,0 2.1,0.6 2.1,2.7 v 14.2 c 0,5 -3.1,7.3 -6.3,7.3 -5.4,0 -6.5,-3.6 -6.8,-8.3 v -15.9 h 2.4 v -1 h -10.4 z"
           fill="#c41230"
           display="inline"
           id="XMLID_443_" />
        <path
           d="m 628.4,714.3 h 1 l 5.5,-12.9 c 1.1,-2.4 1.7,-2.7 2.5,-2.8 h 0.3 v -1 H 632 v 1 h 0.7 c 1.1,0 1.6,-0.1 1.6,0.9 0,0.6 -0.2,1.2 -0.6,2.2 l -2.5,5.9 -4,-9 h 2 v -1 h -9.3 v 1 h 1.7 z"
           fill="#c41230"
           display="inline"
           id="XMLID_442_" />
        <path
           d="m 669.6,714.3 h 0.9 c 0.2,-0.6 0.6,-0.9 1.3,-0.9 1,0 2.1,0.9 4.2,0.9 3.5,0 5.9,-3 5.9,-6 0,-4.5 -3.1,-4.8 -7,-5.4 -2.1,-0.3 -3.2,-0.6 -3.2,-2.2 0,-1.7 1.5,-2.5 3.5,-2.5 2.8,0 3.8,1.8 4.8,4.2 h 0.9 v -5.2 h -0.8 c 0,0.4 -0.4,0.8 -1.1,0.8 -1.2,0 -2.1,-0.8 -3.8,-0.8 -3.7,0 -5.5,3.1 -5.5,5.5 0,4.8 3.6,5.2 6.4,5.5 2.7,0.3 3.6,0.5 3.6,2.2 0,2 -1.6,2.8 -3.6,2.8 -2.8,0 -4.7,-2.4 -5.4,-5.1 h -0.9 v 6.2 z"
           fill="#c41230"
           display="inline"
           id="XMLID_441_" />
        <polygon
           points="610.9,713.9 610.9,712.9 613.5,712.9 613.5,698.7 610.9,698.7 610.9,697.6 618.6,697.6 618.6,712.9 621.1,712.9 621.1,713.9 "
           fill="#c41230"
           display="inline"
           id="XMLID_440_" />
        <path
           d="m 613.5,692.5 c 0,1.4 1.1,2.5 2.5,2.5 1.4,0 2.5,-1.1 2.5,-2.5 0,-1.4 -1.1,-2.5 -2.5,-2.5 -1.4,0 -2.5,1.1 -2.5,2.5"
           fill="#c41230"
           display="inline"
           id="XMLID_439_" />
        <path
           d="m 684.9,692.5 c 0,1.4 1.1,2.5 2.5,2.5 1.4,0 2.5,-1.1 2.5,-2.5 0,-1.4 -1.1,-2.5 -2.5,-2.5 -1.3,0 -2.5,1.1 -2.5,2.5"
           fill="#c41230"
           display="inline"
           id="XMLID_438_" />
        <path
           id="path282"
           d="m 391.3,705 h 10.2 c 0,-4 -3.7,-7.8 -7.6,-7.7 -4.4,0 -8.1,3.8 -8.1,8.7 0,4.8 3.5,8.4 8.2,8.4 4.5,0 6.8,-2.8 7.6,-6.5 h -1 c -0.8,3.4 -2.6,5.4 -5.5,5.4 -3.4,0 -3.8,-2.7 -3.8,-5.2 z m 0,-1 v -2.5 c 0,-2.5 1.1,-3.2 2.3,-3.2 1.8,0 2.3,1.2 2.3,3.2 v 2.5 z"
           fill="#c41230"
           display="inline" />
        <path
           id="path284"
           d="M 435.8,705 H 446 c 0,-4 -3.7,-7.8 -7.6,-7.7 -4.4,0 -8.1,3.8 -8.1,8.7 0,4.8 3.5,8.4 8.2,8.4 4.5,0 6.8,-2.8 7.6,-6.5 h -1 c -0.8,3.4 -2.6,5.4 -5.5,5.4 -3.4,0 -3.8,-2.7 -3.8,-5.2 V 705 Z m 0,-1 v -2.5 c 0,-2.5 1.1,-3.2 2.3,-3.2 1.3,0 2.3,0.8 2.3,3.2 v 2.5 z"
           fill="#c41230"
           display="inline" />
        <path
           d="m 607.7,712.9 v -10 c 0,-4 -1.7,-5.8 -5.2,-5.8 -2.5,0 -5,1.4 -6,3.6 v 0 -3 h -7.6 v 1 h 2.5 v 14.2 h -2.5 v 1 h 9.8 v -1 h -2.2 v -9.7 c 0.3,-1.4 2.1,-4.5 4.1,-4.5 1.3,0 2,0.5 2,2.9 v 11.3 h -2.1 v 1 h 9.7 v -1 z"
           fill="#c41230"
           display="inline"
           id="XMLID_433_" />
        <path
           d="m 545.7,697.7 v 3 0 c 1,-2.1 3.5,-3.6 6,-3.6 3.5,0 5.2,1.9 5.2,5.8 v 10 h 2.5 v 1 h -9.7 v -1 h 2.1 v -11.3 c 0,-2.5 -0.7,-2.9 -2,-2.9 -2,0 -3.8,3.2 -4.1,4.5 v 9.7 h 2.2 v 1 H 538 v -1 h 2.5 V 698.7 H 538 v -1 z"
           fill="#c41230"
           display="inline"
           id="XMLID_432_" />
        <path
           d="m 383.2,713 v -10 c 0,-4 -1.7,-5.8 -5.2,-5.8 -2.5,0 -5,1.4 -6,3.6 v 0 -3 h -7.6 v 1 h 2.5 V 713 h -2.5 v 1 h 9.8 v -1 H 372 v -9.7 c 0.3,-1.4 2.1,-4.5 4.1,-4.5 1.3,0 2,0.5 2,2.9 V 713 H 376 v 1 h 9.7 v -1 z"
           fill="#c41230"
           display="inline"
           id="XMLID_431_" />
        <path
           d="m 422.5,692.6 c 0,1.4 1.1,2.5 2.5,2.5 1.4,0 2.5,-1.1 2.5,-2.5 0,-1.4 -1.1,-2.5 -2.5,-2.5 -1.4,0 -2.5,1.1 -2.5,2.5"
           fill="#c41230"
           display="inline"
           id="XMLID_430_" />
        <path
           d="m 714.8,697.6 v 1.1 c 1.6,0 2.3,0.1 2.3,0.9 0,0.6 -0.2,1.2 -0.6,2.2 l -2.5,5.9 -4,-9 h 2.1 v -1.1 h -12.7 v -7.9 h -0.7 c 0,3.9 -2.7,7.9 -6.4,7.9 v 1.1 h 2 v 11.4 c 0,3.5 3,4.2 4.1,4.2 2.3,0 3.8,-0.9 4.9,-2.8 l -0.8,-0.4 c -0.4,0.7 -1,1.5 -2,1.5 -0.7,0 -1.1,-0.5 -1.1,-1.7 v -12.2 h 5.1 l 6.7,15.5 -2.3,5.5 v 0 c 0,0 0,0 0,0 v 0 c -0.1,0.1 -0.2,0.2 -0.3,0.2 -0.1,0 -0.2,-0.1 -0.3,-0.2 0,0 0,0 0,0 -0.3,-1.1 -1.3,-1.8 -2.4,-1.8 -1.4,0 -2.5,1.1 -2.5,2.5 0,1 0.6,1.8 1.4,2.3 0,0 0,0 0,0 0,0 0.1,0 0.1,0 0.1,0 0.1,0 0.1,0.1 0.3,0.1 0.6,0.2 0.9,0.2 2.1,0.2 3.2,-1.4 4,-3 0.2,-0.4 0.3,-0.7 0.5,-1.1 0.3,-0.8 0.9,-2.1 1.6,-3.7 v 0 l 0.6,-1.5 v 0 l 5.2,-12.3 c 1.1,-2.4 1.5,-2.7 2.9,-2.7 v 0 -1.1 z"
           fill="#c41230"
           display="inline"
           id="XMLID_429_" />
        <g
           id="g300"
           display="inline">
          <defs
             id="defs292">
            <rect
               height="36.700001"
               width="414.60001"
               y="687"
               x="306"
               id="rect472" />
          </defs>
          <clipPath
             id="XMLID_583_">
            <use
               height="100%"
               width="100%"
               y="0"
               x="0"
               id="use294"
               overflow="visible"
               xlink:href="#XMLID_424_" />
          </clipPath>
          <path
             d="m 360.6,697.1 c -2.4,0 -4.2,1.6 -4.9,3.5 h -0.1 v -2.8 H 348 v 1 h 2.5 V 713 H 348 v 1 h 11 v -1 h -3.4 v -7.9 c 0,-2.4 0.6,-4.8 2.2,-6.1 0.1,-0.1 0.2,-0.1 0.3,0 0.1,0.1 0.2,0.2 0.2,0.3 v 0 c -0.1,0.3 -0.2,0.6 -0.2,1.1 -0.1,1.3 1.1,2.4 2.5,2.4 1.8,0 2.8,-1.3 2.8,-2.7 0.1,-1.9 -1,-3 -2.8,-3 z"
             fill="#c41230"
             clip-path="url(#XMLID_583_)"
             id="XMLID_428_" />
          <path
             id="path298"
             d="m 411.9,702.7 c 0,4.3 -1,4.4 -2.3,4.4 -1.5,0 -2.3,-0.3 -2.3,-4.5 0,-3 0.3,-4.3 2.3,-4.3 1.7,0 2.2,0.1 2.3,4.4 z m -0.6,12.6 c 3.7,0 4.7,0.2 4.7,2.4 0,2.7 -3.3,5.2 -7,5.2 -3.3,0 -4.9,-2 -5,-3.8 0,-1.6 0.8,-2.7 1.8,-3.8 z m 4.9,-17 c 0.1,0 0.2,-0.1 0.2,0 0.1,0.1 0.1,0.1 0,0.2 v 0 c -0.2,0.4 -0.3,0.8 -0.1,1.4 0.2,0.5 0.6,0.9 1.1,1 1.1,0.2 2,-0.5 2,-1.5 0,-0.7 -0.4,-1.1 -0.9,-1.4 -0.5,-0.3 -1,-0.4 -1.6,-0.4 -1,0 -2,0.5 -2.7,1.2 0,0 0,0 0,0 -0.2,-0.1 -0.3,-0.2 -0.5,-0.3 -1,-0.6 -2.3,-1 -4.1,-1 -3.1,0 -6.4,2 -6.4,5.4 0,2 1.1,3.6 3.1,4.5 v 0.1 c -1.4,0.2 -3.7,1.2 -3.7,4.2 0,1.8 0.8,3.2 2.4,3.7 v 0.1 c -1.5,0.4 -3.2,1.9 -3.2,3.7 0,2.7 3.2,4.8 7.3,4.8 5.1,0 8.5,-3.5 8.5,-8 0,-3.6 -1.8,-5.2 -5.4,-5.1 H 406 c -0.9,0 -1.5,0 -1.5,-1 0,-0.9 1.4,-1.9 2.8,-1.9 0.2,0 0.6,0.2 0.7,0.2 0.4,0.1 0.9,0.2 1.5,0.2 3.2,0 6.6,-1.8 6.6,-5.3 0,-1.1 -0.5,-2.6 -1.3,-3.5 -0.1,-0.1 0,-0.1 0,-0.2 0.4,-0.3 0.8,-0.5 1,-0.6 0.1,-0.4 0.2,-0.4 0.4,-0.5 z"
             fill="#c41230"
             clip-path="url(#XMLID_583_)" />
        </g>
        <path
           d="m 665.6,697 c -2.4,0 -4.2,1.6 -4.9,3.5 h -0.1 v -2.8 H 653 v 1 h 2.5 v 14.2 H 653 v 1 h 11 v -1 h -3.4 V 705 c 0,-2.4 0.6,-4.8 2.2,-6.1 0.1,-0.1 0.2,-0.1 0.3,0 0.1,0.1 0.2,0.2 0.2,0.3 v 0 c -0.1,0.3 -0.2,0.6 -0.2,1 0,1.3 1.1,2.4 2.5,2.4 1.8,0 2.8,-1.3 2.8,-2.7 0.2,-1.9 -1,-2.9 -2.8,-2.9 z"
           fill="#c41230"
           display="inline"
           id="XMLID_423_" />
      </g>
      <g
         transform="matrix(2.5,0,0,2.5,-576.98568,183.11338)"
         id="g6737">
        <polygon
           transform="matrix(0.38088771,0,0,0.38088771,220.74547,8.7807771)"
           points="73.7,49.9 82,49.9 82,55.4 73.7,55.4 59.9,63.6 71,52.6 59.9,41.7 "
           fill="#c42032"
           id="XMLID_461_" />
        <path
           style="stroke-width:0.380888;fill:#303030;fill-opacity:1"
           d="m 262.83356,19.2171 c -1.63782,0 -3.23754,0.30471 -4.57065,1.295018 -3.0471,2.361504 -9.40793,1.942528 -8.37953,8.303352 -1.14266,5.522872 5.21816,6.056115 8.37953,8.303352 3.16137,2.094882 7.23686,0.723687 10.20779,-0.07618 3.42799,-0.95222 4.49447,-0.95222 4.49447,-0.95222 l 12.5693,-12.455025 c -4.7611,-0.228532 -11.16002,-1.256929 -14.01667,-2.209148 -1.25693,-0.418977 -5.06581,-2.17106 -8.68424,-2.209149 z m -2.47577,3.580345 c 1.0284,0 1.90444,0.837952 1.90444,1.86635 0,1.028396 -0.83795,1.866349 -1.90444,1.866349 -1.0284,0 -1.90444,-0.837953 -1.90444,-1.866349 0,-1.028398 0.87604,-1.86635 1.90444,-1.86635 z m 0,8.303351 c 1.0284,0 1.90444,0.837953 1.90444,1.86635 0,1.028397 -0.83795,1.86635 -1.90444,1.86635 -1.0284,0 -1.90444,-0.837953 -1.90444,-1.86635 0,-1.028397 0.87604,-1.86635 1.90444,-1.86635 z"
           fill="#010101"
           id="XMLID_465_" />
        <polygon
           style="fill:#303030;fill-opacity:1"
           transform="matrix(0.38088771,0,0,0.38088771,220.74547,8.7807771)"
           points="153.6,120.8 175.7,120.8 197.7,142.7 175.7,164.5 153.6,164.5 "
           fill="#010101"
           id="XMLID_466_" />
        <path
           style="stroke-width:0.380888;fill:#303030;fill-opacity:1"
           d="m 278.22142,36.090425 h 29.36645 C 306.86418,24.016285 291.8572,23.635397 291.8572,23.635397 h -1.06648 z"
           fill="#010101"
           id="XMLID_467_" />
        <polygon
           style="fill:#303030;fill-opacity:1"
           transform="matrix(0.38088771,0,0,0.38088771,220.74547,8.7807771)"
           points="120.6,161.8 84.7,161.8 84.7,243.6 120.6,208.1 "
           fill="#010101"
           id="XMLID_468_" />
        <polygon
           style="fill:#303030;fill-opacity:1"
           transform="matrix(0.38088771,0,0,0.38088771,220.74547,8.7807771)"
           points="76.5,112.7 89.6,88.7 92.6,88.7 86.5,110.1 102.6,123.3 118.7,110.1 112.5,88.7 115.8,88.7 128.9,112.7 115.8,136.6 89.6,136.6 "
           fill="#010101"
           id="XMLID_469_" />
        <path
           style="stroke-width:0.380888;fill:#303030;fill-opacity:1"
           d="m 289.76232,39.213704 h 17.82555 c 0,15.578308 -8.37954,21.824866 -8.37954,21.824866 l -9.44601,-9.369837 z"
           fill="#010101"
           id="XMLID_470_" />
        <path
           style="stroke-width:0.380888;fill:#303030;fill-opacity:1"
           d="m 289.76232,87.015113 h 17.82555 c 0,-15.578309 -8.37954,-21.824867 -8.37954,-21.824867 l -9.44601,9.36984 z"
           fill="#010101"
           id="XMLID_471_" />
        <ellipse
           style="stroke-width:0.380888;fill:#303030;fill-opacity:1"
           ry="6.741713"
           rx="6.8178897"
           cy="69.989433"
           cx="259.82455"
           fill="#010101"
           id="XMLID_472_" />
        <path
           style="stroke-width:0.380888"
           d="m 269.80381,90.138394 h 37.78406 C 306.86418,102.21253 291.8572,102.59342 291.8572,102.59342 h -34.62269 z"
           fill="#c42032"
           id="XMLID_473_" />
      </g>
      <path
         style="stroke-width:3.0916;fill:#303030;fill-opacity:1"
         d="m 1014.3872,358.96081 c 10.8206,0 19.168,-2.16409 25.3512,-6.49236 6.1832,-4.32828 9.2748,-9.89316 9.2748,-17.31303 0,-5.56487 -1.5458,-9.58398 -4.3282,-12.67558 -2.7825,-3.09164 -6.1833,-4.94661 -10.2024,-6.18321 -4.019,-1.23667 -8.9656,-2.4733 -15.1488,-3.4008 -6.1832,-0.92747 -10.5115,-2.1641 -13.6032,-3.40077 -2.7824,-1.23664 -4.3282,-3.0916 -4.3282,-6.1832 0,-2.47329 1.2367,-4.63743 4.0191,-6.18323 2.7825,-1.5458 6.8015,-2.47329 12.0573,-2.47329 8.0382,0 15.458,1.85497 21.9505,5.87406 l 6.8015,-13.60309 c -3.4008,-1.85495 -7.7291,-3.70991 -12.9848,-4.94656 -5.2557,-1.23665 -10.5115,-1.85497 -15.7672,-1.85497 -10.2023,0 -18.54968,2.16412 -24.42373,6.49238 -6.18325,4.32826 -8.9657,10.20232 -8.9657,17.31302 0,5.56488 1.5458,9.89315 4.32825,12.98475 2.78245,3.09161 6.4924,5.25574 10.2023,6.49238 4.01918,1.23663 8.96568,2.4733 15.45808,3.40077 5.8741,0.9275 10.5115,1.85497 12.9848,3.0916 2.7824,0.9275 4.0191,2.78247 4.0191,5.56491 0,5.5649 -5.2557,8.34734 -16.0764,8.34734 -4.6374,0 -9.2749,-0.6183 -14.2214,-2.16414 -4.94658,-1.23663 -8.96568,-3.0916 -12.36648,-5.56487 l -6.80155,13.60308 c 3.4008,2.47328 8.3474,4.6374 14.22145,6.18321 5.87408,1.54581 12.36648,3.0916 18.54968,3.0916 z m -71.72538,0 c 7.41985,0 13.91225,-1.54579 19.7863,-4.63741 5.56485,-3.09159 9.89315,-7.41987 12.98475,-13.29391 l -13.6031,-8.03821 c -2.1641,3.40078 -4.94655,6.18324 -8.34735,8.03821 -3.40075,1.85497 -6.80155,2.78244 -10.8206,2.78244 -6.80155,0 -12.36645,-2.16414 -16.6947,-6.49237 -4.32825,-4.32828 -6.4924,-10.20231 -6.4924,-17.31302 0,-7.11071 2.16415,-12.98476 6.4924,-17.313 4.32825,-4.32827 9.89315,-6.49238 16.6947,-6.49238 4.01905,0 7.41985,0.92747 10.8206,2.78244 3.4008,1.85497 6.18325,4.32826 8.34735,8.03818 l 13.6031,-8.03818 c -2.78245,-5.87406 -7.1107,-10.20232 -12.6756,-13.29391 -5.5649,-3.09162 -12.36645,-4.63743 -19.7863,-4.63743 -8.0382,0 -15.14885,1.54581 -21.3321,4.94658 -6.1832,3.40077 -11.1298,8.03818 -14.53055,13.91224 -3.4008,5.87405 -5.25575,12.67561 -5.25575,20.09546 0,7.41987 1.85495,14.22141 5.25575,20.09545 3.40075,5.87408 8.34735,10.51148 14.8397,13.91224 5.5649,3.09162 12.6756,4.94658 20.7138,4.94658 z m -67.3971,-89.96582 c 3.40075,0 6.1832,-0.92749 8.34735,-3.09161 2.1641,-2.16413 3.09165,-4.94657 3.09165,-8.03818 0,-3.09162 -1.23665,-5.56491 -3.4008,-7.41988 -2.16415,-1.85495 -4.94655,-2.78244 -8.0382,-2.78244 -3.0916,0 -5.87405,0.92749 -8.0382,3.09161 -2.1641,2.16412 -3.40075,4.63741 -3.40075,7.72903 0,3.09161 1.23665,5.56489 3.40075,7.72903 1.855,1.54579 4.63745,2.78244 8.0382,2.78244 z m -8.96565,88.7292 h 17.9313 v -76.36276 h -17.9313 z m -19.78635,-16.6947 c -2.7824,2.16414 -5.874,3.09161 -9.8931,3.09161 -3.4008,0 -5.87405,-0.92747 -7.729,-2.78244 -1.855,-1.85497 -2.78245,-4.9466 -2.78245,-8.65651 v -36.48099 h 20.40455 v -14.22141 h -20.40455 v -17.31302 h -17.93135 v 68.32455 c 0,8.34738 2.1641,14.83976 6.80155,19.168 4.6374,4.32827 11.1298,6.49239 19.4771,6.49239 3.4008,0 6.49235,-0.30921 9.584,-1.23665 3.09165,-0.92747 5.5649,-2.16415 7.72905,-3.70996 z m -95.83984,2.47327 c -6.49238,0 -12.0573,-2.1641 -16.38553,-6.49237 -4.32827,-4.32824 -6.4924,-10.20231 -6.4924,-17.31302 0,-7.11068 2.16413,-12.98474 6.4924,-17.313 4.32823,-4.32825 9.58398,-6.49238 16.38553,-6.49238 6.80152,0 12.05727,2.16413 16.3855,6.49238 4.3283,4.32826 6.49237,10.20232 6.49237,17.313 0,7.11071 -2.16407,12.98478 -6.49237,17.31302 -4.32823,4.32827 -9.89313,6.49237 -16.3855,6.49237 z m 0,15.45805 c 7.729,0 14.83972,-1.54579 21.02292,-4.94658 6.18327,-3.40076 11.12982,-8.03816 14.53057,-13.91224 3.40075,-5.87404 5.25575,-12.67558 5.25575,-20.09545 0,-7.41985 -1.855,-14.22141 -5.25575,-20.09546 -3.40075,-5.87406 -8.3473,-10.51147 -14.53057,-13.91224 -6.1832,-3.40077 -13.29392,-4.94658 -21.02292,-4.94658 -7.72903,0 -14.8397,1.54581 -21.02298,4.94658 -6.18317,3.40077 -11.12977,8.03818 -14.53055,13.91224 -3.40077,5.87405 -5.25572,12.67561 -5.25572,20.09546 0,7.41987 1.85495,14.22141 5.25572,20.09545 3.40078,5.87408 8.34738,10.51148 14.53055,13.91224 6.18328,3.09162 13.29395,4.94658 21.02298,4.94658 z M 658.5429,343.50276 c -4.32822,0 -8.03815,-0.92747 -11.43895,-2.78243 -3.40077,-1.85497 -6.18322,-4.63741 -8.03817,-8.34735 -1.85498,-3.70993 -3.09158,-7.72904 -3.09158,-12.67561 0,-4.63741 0.92745,-8.96564 3.09158,-12.67559 1.85495,-3.70992 4.6374,-6.49238 8.03817,-8.34735 3.4008,-1.85495 7.41985,-2.78244 11.43895,-2.78244 6.49238,0 12.05728,2.16413 16.38555,6.49238 4.32823,4.32826 6.49238,10.20232 6.49238,17.313 0,7.11071 -2.16415,12.98478 -6.49238,17.31302 -4.63745,4.32827 -9.89317,6.49237 -16.38555,6.49237 z m 1.85495,-63.06882 c -4.94655,0 -9.58397,0.92749 -13.60307,2.47329 -4.0191,1.85496 -7.729,4.32825 -10.82058,7.72902 v -38.95428 h -17.93137 v 106.04222 h 17.00385 v -9.89315 c 3.0916,3.70994 6.49237,6.49236 10.82065,8.03817 4.32822,1.85498 9.27482,2.78246 14.53052,2.78246 7.4199,0 14.22143,-1.54582 20.09548,-4.94661 5.87407,-3.09159 10.51147,-7.72899 13.91225,-13.9122 3.40075,-5.87407 4.94657,-12.67561 4.94657,-20.40466 0,-7.72901 -1.54582,-14.53054 -4.94657,-20.4046 -3.40078,-5.87406 -8.03818,-10.51147 -13.91225,-13.60308 -5.87405,-3.09162 -12.67558,-4.94658 -20.09548,-4.94658 z m -100.16812,63.06882 c -6.49238,0 -12.05728,-2.1641 -16.3855,-6.49237 -4.3283,-4.32824 -6.49243,-10.20231 -6.49243,-17.31302 0,-7.11068 2.16413,-12.98474 6.49243,-17.313 4.32822,-4.32825 9.58395,-6.49238 16.3855,-6.49238 6.80155,0 12.05727,2.16413 16.38555,6.49238 4.32822,4.32826 6.49237,10.20232 6.49237,17.313 0,7.11071 -2.16415,12.98478 -6.49237,17.31302 -4.63743,4.32827 -9.89318,6.49237 -16.38555,6.49237 z m 0,15.45805 c 7.72902,0 14.8397,-1.54579 21.02297,-4.94658 6.18318,-3.40076 11.12975,-8.03816 14.53053,-13.91224 3.40077,-5.87404 5.25572,-12.67558 5.25572,-20.09545 0,-7.41985 -1.85495,-14.22141 -5.25572,-20.09546 -3.40078,-5.87406 -8.34735,-10.51147 -14.53053,-13.91224 -6.18327,-3.40077 -13.29395,-4.94658 -21.02297,-4.94658 -7.729,0 -14.83973,1.54581 -21.02295,4.94658 -6.18323,3.40077 -11.1298,8.03818 -14.53055,13.91224 -3.40078,5.87405 -5.25575,12.67561 -5.25575,20.09546 0,7.41987 1.85497,14.22141 5.25575,20.09545 3.40075,5.87408 8.34732,10.51148 14.53055,13.91224 6.18322,3.09162 13.29395,4.94658 21.02295,4.94658 z M 484.17615,292.49122 V 281.36143 H 467.1723 v 76.36276 h 17.9313 v -37.09932 c 0,-7.72904 1.85498,-13.60309 5.87408,-17.62218 4.01907,-4.01909 9.27482,-6.18321 16.38552,-6.18321 1.23663,0 2.4733,0 4.0191,0.30916 v -16.69469 c -12.98472,0 -21.9504,4.0191 -27.20615,12.05728 z m -75.12612,51.01154 c -6.49238,0 -12.05728,-2.1641 -16.38553,-6.49237 -4.32822,-4.32824 -6.49237,-10.20231 -6.49237,-17.31302 0,-7.11068 2.16415,-12.98474 6.49237,-17.313 4.32825,-4.32825 9.584,-6.49238 16.38553,-6.49238 6.80152,0 12.0573,2.16413 16.38552,6.49238 4.32828,4.32826 6.4924,10.20232 6.4924,17.313 0,7.11071 -2.16412,12.98478 -6.4924,17.31302 -4.32822,4.32827 -9.584,6.49237 -16.38552,6.49237 z m 0,15.45805 c 7.72902,0 14.8397,-1.54579 21.02295,-4.94658 6.1832,-3.40076 11.12977,-8.03816 14.53057,-13.91224 3.40075,-5.87404 5.25573,-12.67558 5.25573,-20.09545 0,-7.41985 -1.85498,-14.22141 -5.25573,-20.09546 -3.4008,-5.87406 -8.34737,-10.51147 -14.53057,-13.91224 -6.18325,-3.40077 -13.29393,-4.94658 -21.02295,-4.94658 -7.729,0 -14.83973,1.54581 -21.02293,4.94658 -6.18325,3.40077 -11.1298,8.03818 -14.53057,13.91224 -3.40078,5.87405 -5.25575,12.67561 -5.25575,20.09546 0,7.41987 1.85497,14.22141 5.25575,20.09545 3.40077,5.87408 8.34732,10.51148 14.53057,13.91224 6.49235,3.09162 13.29393,4.94658 21.02293,4.94658 z m -66.4696,-89.96582 c 3.4008,0 6.18322,-0.92749 8.34732,-3.09161 2.16415,-2.16413 3.09165,-4.94657 3.09165,-8.03818 0,-3.09162 -1.23667,-5.56491 -3.40077,-7.41988 -2.16415,-1.85495 -4.94658,-2.78244 -8.0382,-2.78244 -3.09163,0 -5.87405,0.92749 -8.03818,3.09161 -2.1641,2.16412 -3.40077,4.63741 -3.40077,7.72903 0,3.09161 1.23667,5.56489 3.40077,7.72903 1.85495,1.54579 4.6374,2.78244 8.03818,2.78244 z m -8.96565,88.7292 H 351.5461 V 281.36143 H 333.61478 Z M 274.8742,343.19363 h -29.98862 v -28.75197 h 29.98862 c 14.53055,0 21.64128,4.94654 21.64128,14.53055 0,9.58398 -7.11073,14.22142 -21.64128,14.22142 z m -3.70992,-70.79787 c 6.49237,0 11.43895,1.23664 14.8397,3.40076 3.40077,2.47329 5.25575,5.87406 5.25575,10.51147 0,4.63743 -1.85498,8.0382 -5.25575,10.20232 -3.40075,2.47329 -8.34733,3.40077 -14.8397,3.40077 h -26.2787 v -27.51532 z m 25.9695,33.38937 c 4.0191,-2.16412 7.1107,-4.94656 9.58397,-8.96565 2.16413,-3.70994 3.4008,-8.34735 3.4008,-13.29393 0,-8.03818 -3.09162,-14.53056 -9.58402,-19.16797 -6.49238,-4.63741 -15.45805,-6.80155 -27.20615,-6.80155 h -46.99245 v 100.16816 h 49.77487 c 12.67563,0 22.56875,-2.47332 29.0612,-7.11072 6.80148,-4.6374 9.89313,-11.43895 9.89313,-20.09546 0,-6.1832 -1.5458,-11.43894 -4.94658,-15.76721 -2.78247,-4.01907 -7.4199,-7.11071 -12.98477,-8.96567 z"
         id="XMLID_493_" />
      <g
         transform="matrix(1.9985105,0,0,1.9985105,-112.44035,149.50794)"
         id="g890">
        <g
           transform="matrix(1.5469569,0,0,1.5469569,133.89616,-299.4296)"
           id="XMLID_496_">
          <defs
             id="defs316">
            <rect
               height="23.6"
               width="266.39999"
               y="270"
               x="23.1"
               id="rect493" />
          </defs>
          <clipPath
             id="XMLID_584_">
            <use
               height="100%"
               width="100%"
               y="0"
               x="0"
               id="use318"
               overflow="visible"
               xlink:href="#XMLID_495_" />
          </clipPath>
          <polygon
             points="102.8,287.3 96.3,287.3 96.3,286.7 97.9,286.7 97.9,277.5 96.6,277.5 96.6,276.8 101.2,276.8 101.2,286.7 102.8,286.7 "
             fill="#c41230"
             clip-path="url(#XMLID_584_)"
             id="XMLID_497_" />
          <path
             d="M 36.6,270.5 H 36 c 0,0.5 -0.3,0.7 -0.8,0.7 -1,0 -2.5,-1.2 -4.2,-1.2 -4.9,0 -7.9,4.9 -7.9,9.1 0,4.3 2.8,8.6 7.6,8.6 2.9,0 4,-1.4 4.7,-1.4 0.5,0 0.6,0.4 0.6,1 h 0.7 v -5.9 H 36 l -0.1,0.8 c -0.3,1.9 -1.8,4.8 -4.9,4.8 -2.7,0 -3.8,-2.4 -3.8,-8.2 0,-6.1 1.4,-8.2 3.9,-8.2 2.7,0 4.6,3.1 5,5.5 h 0.6 v -5.6 z"
             fill="#c41230"
             clip-path="url(#XMLID_584_)"
             id="XMLID_498_" />
        </g>
        <path
           style="stroke-width:1.54696"
           d="m 210.16113,141.9172 c 0,0.92816 -0.61878,2.01103 -1.08286,2.01103 -0.61879,0 -0.77347,-0.77348 -0.77347,-1.85635 v -8.50826 c 0,-4.17679 -3.8674,-5.25964 -7.73479,-5.25964 -3.7127,0 -6.34253,1.85633 -6.34253,3.86738 0,1.23756 0.77348,2.32043 2.32045,2.32043 1.39225,0 2.16573,-0.92817 2.16573,-2.16573 0,-1.85635 -2.01105,-1.85635 -2.01105,-1.85635 0,-0.77348 2.16575,-1.08288 3.40331,-1.08288 2.78452,0 3.09392,1.08288 3.09392,3.24861 v 3.09392 l -3.558,0.30939 c -3.40331,0.30939 -6.96131,1.08287 -6.96131,4.95027 0,3.24861 2.78452,4.48616 5.72373,4.48616 1.39227,0 4.0221,-0.61877 4.95026,-2.32043 0.6188,1.54696 2.01105,2.32043 3.71271,2.32043 2.32043,0 3.8674,-1.39225 3.8674,-3.55798 z m -6.65191,-1.23758 c 0,2.01105 -1.23756,3.55801 -2.93921,3.55801 -2.47514,0 -2.62983,-2.16575 -2.62983,-3.71271 0,-2.01104 0.15473,-3.2486 2.62983,-3.558 l 2.93921,-0.3094 z"
           fill="#c41230"
           id="XMLID_500_" />
        <polygon
           transform="matrix(1.5469569,0,0,1.5469569,133.89616,-299.4296)"
           points="271.5,287.3 264.9,287.3 264.9,286.6 266.6,286.6 266.6,277.5 264.9,277.5 264.9,276.8 269.8,276.8 269.8,286.6 271.5,286.6 "
           fill="#c41230"
           id="XMLID_501_" />
        <path
           style="stroke-width:1.54696"
           d="m 331.44255,136.65752 6.03313,-17.3259 h 8.35356 v 1.08287 h -2.32043 v 23.82314 h 2.32043 v 1.08286 h -10.0552 v -1.08286 h 2.47512 v -23.51374 0 l -8.50827,24.4419 h -0.92817 l -8.81765,-24.906 v 0 20.72923 c 0,2.93921 0.77348,3.09391 2.78453,3.09391 h 0.15473 v 1.08286 h -6.34251 v -1.08286 c 2.16573,0 2.47512,-1.23757 2.47512,-2.78453 v -20.88391 h -2.47512 v -1.08287 h 9.12704 z"
           fill="#c41230"
           id="XMLID_502_" />
        <path
           style="stroke-width:1.54696"
           d="m 351.70768,136.19344 h 10.05523 c 0,-4.02208 -3.7127,-7.73478 -7.58009,-7.73478 -4.33148,0 -8.04418,3.7127 -8.04418,8.66296 0,4.79558 3.558,8.35356 8.19888,8.35356 4.48617,0 6.8066,-2.78451 7.58009,-6.34251 h -0.92818 c -0.77347,3.40329 -2.62982,5.41434 -5.41435,5.41434 -3.40331,0 -3.7127,-2.62981 -3.7127,-5.10496 v -3.24861 z m 0,-1.08285 v -2.47515 c 0,-2.47513 1.08287,-3.24861 2.32044,-3.24861 1.70166,0 2.32044,1.23758 2.32044,3.24861 v 2.47515 z"
           fill="#c41230"
           id="XMLID_505_" />
        <path
           style="stroke-width:1.54696"
           d="m 504.08293,136.03875 h 10.05522 c 0,-4.02209 -3.7127,-7.73477 -7.58009,-7.73477 -4.33148,0 -8.04417,3.71268 -8.04417,8.66294 0,4.79558 3.55801,8.35357 8.19887,8.35357 4.48618,0 6.80661,-2.78453 7.58009,-6.34252 h -0.92818 c -0.77347,3.40331 -2.62983,5.41434 -5.41434,5.41434 -3.40332,0 -3.7127,-2.62981 -3.7127,-5.10496 v -3.2486 z m 0,-0.92816 v -2.47515 c 0,-2.47513 1.08288,-3.24861 2.32043,-3.24861 1.70166,0 2.32045,1.23758 2.32045,3.24861 v 2.47515 z"
           fill="#c41230"
           id="XMLID_508_" />
        <polygon
           transform="matrix(1.5469569,0,0,1.5469569,133.89616,-299.4296)"
           points="149,286.6 147.4,286.6 147.4,287.3 153.9,287.3 153.9,286.6 152.3,286.6 152.3,270.7 147.4,270.7 147.4,271.3 149,271.3 "
           fill="#c41230"
           id="XMLID_509_" />
        <polygon
           transform="matrix(1.5469569,0,0,1.5469569,133.89616,-299.4296)"
           points="156,286.6 154.4,286.6 154.4,287.3 160.9,287.3 160.9,286.6 159.3,286.6 159.3,270.7 154.4,270.7 154.4,271.3 156,271.3 "
           fill="#c41230"
           id="XMLID_510_" />
        <path
           style="stroke-width:1.54696"
           d="m 400.28213,136.96692 c 0,-4.95026 -3.86739,-8.50826 -8.66295,-8.50826 -4.79558,0 -8.66296,3.558 -8.66296,8.50826 0,4.95028 3.86738,8.50826 8.66296,8.50826 4.64086,0 8.66295,-3.55798 8.66295,-8.50826 m -5.72374,3.558 c 0,2.78453 -1.08286,3.86739 -2.93921,3.86739 -1.85635,0 -2.93923,-1.08286 -2.93923,-3.86739 v -7.27069 c 0,-2.78452 1.08288,-3.8674 2.93923,-3.8674 1.85635,0 2.93921,1.08288 2.93921,3.8674 z"
           fill="#c41230"
           id="XMLID_513_" />
        <path
           style="stroke-width:1.54696"
           d="m 426.58039,120.10509 h 2.62983 v 16.24305 c 0,5.72374 3.8674,9.12704 9.90053,9.12704 6.8066,0 9.74582,-3.55798 9.74582,-8.97234 v -13.92262 c 0,-2.16573 0.61878,-2.47513 1.85635,-2.47513 h 0.77348 v -0.92817 h -6.65191 v 0.92817 h 0.46409 c 1.85634,0 2.16574,0.6188 2.16574,2.62983 v 14.0773 c 0,4.95028 -3.09391,7.27071 -6.18783,7.27071 -5.41434,0 -6.34252,-3.55801 -6.80661,-8.35357 V 119.9504 h 2.47512 v -0.92818 h -10.36461 z"
           fill="#c41230"
           id="XMLID_514_" />
        <path
           style="stroke-width:1.54696"
           d="m 490.00563,145.32049 h 0.92818 l 5.41434,-12.83973 c 1.08287,-2.32045 1.70165,-2.62983 2.47513,-2.78453 h 0.30939 v -0.92817 h -5.72373 v 1.08287 h 0.77347 c 1.08288,0 1.54696,0 1.54696,0.92816 0,0.61879 -0.15473,1.23757 -0.6188,2.16575 l -2.47511,5.87843 -4.0221,-8.97234 h 2.01105 v -1.08287 h -9.28174 v 1.08287 h 1.70165 z"
           fill="#c41230"
           id="XMLID_515_" />
        <path
           style="stroke-width:1.54696"
           d="m 530.99998,145.32049 h 0.92817 c 0.15473,-0.61878 0.61878,-0.92818 1.23757,-0.92818 0.92818,0 2.16574,0.92818 4.17679,0.92818 3.558,0 5.87843,-2.93921 5.87843,-6.03314 0,-4.48616 -3.09392,-4.79556 -6.96131,-5.41434 -2.01105,-0.30939 -3.2486,-0.61878 -3.2486,-2.16575 0,-1.70165 1.54695,-2.47511 3.4033,-2.47511 2.78453,0 3.86739,1.85634 4.79556,4.17677 h 0.92818 v -5.25966 h -0.77348 c 0,0.4641 -0.3094,0.77349 -1.08287,0.77349 -1.23756,0 -2.16574,-0.77349 -3.86739,-0.77349 -3.71269,0 -5.41435,3.09392 -5.41435,5.41436 0,4.79557 3.558,5.10495 6.34253,5.41435 2.62982,0.30938 3.558,0.46408 3.558,2.16573 0,2.01105 -1.54697,2.78453 -3.558,2.78453 -2.78453,0 -4.64087,-2.47513 -5.41436,-5.10496 h -0.92817 z"
           fill="#c41230"
           id="XMLID_516_" />
        <polygon
           transform="matrix(1.5469569,0,0,1.5469569,133.89616,-299.4296)"
           points="225.5,287.3 219,287.3 219,286.6 220.6,286.6 220.6,277.5 219,277.5 219,276.8 223.9,276.8 223.9,286.6 225.5,286.6 "
           fill="#c41230"
           id="XMLID_517_" />
        <path
           style="stroke-width:1.54696"
           d="m 475.15484,123.6631 c 0,1.39225 1.08287,2.47513 2.47513,2.47513 1.39227,0 2.47513,-1.08288 2.47513,-2.47513 0,-1.39227 -1.08286,-2.47513 -2.47513,-2.47513 -1.23756,0 -2.47513,1.08286 -2.47513,2.47513"
           fill="#c41230"
           id="XMLID_518_" />
        <path
           style="stroke-width:1.54696"
           d="m 546.16015,123.6631 c 0,1.39225 1.08287,2.47513 2.47515,2.47513 1.39225,0 2.47513,-1.08288 2.47513,-2.47513 0,-1.39227 -1.08288,-2.47513 -2.47513,-2.47513 -1.23758,0 -2.47515,1.08286 -2.47515,2.47513"
           fill="#c41230"
           id="XMLID_519_" />
        <path
           style="stroke-width:1.54696"
           d="m 254.4041,136.19344 h 10.05523 c 0,-4.02208 -3.7127,-7.73478 -7.58008,-7.73478 -4.3315,0 -8.04419,3.7127 -8.04419,8.66296 0,4.79558 3.55801,8.35356 8.19887,8.35356 4.48618,0 6.80661,-2.78451 7.58009,-6.34251 h -0.92818 c -0.77348,3.40329 -2.62983,5.41434 -5.41434,5.41434 -3.4033,0 -3.7127,-2.62981 -3.7127,-5.10496 v -3.24861 z m 0,-1.08285 v -2.47515 c 0,-2.47513 1.08287,-3.24861 2.32043,-3.24861 1.70165,0 2.32045,1.23758 2.32045,3.24861 v 2.47515 z"
           fill="#c41230"
           id="XMLID_522_" />
        <path
           style="stroke-width:1.54696"
           d="m 298.64707,136.19344 h 10.05523 c 0,-4.02208 -3.7127,-7.73478 -7.5801,-7.73478 -4.33148,0 -8.04417,3.7127 -8.04417,8.66296 0,4.79558 3.558,8.35356 8.19886,8.35356 4.48618,0 6.80662,-2.78451 7.58009,-6.34251 h -0.92817 c -0.77348,3.40329 -2.62983,5.41434 -5.41434,5.41434 -3.40331,0 -3.7127,-2.62981 -3.7127,-5.10496 v -3.24861 z m 0,-1.08285 v -2.47515 c 0,-2.47513 1.08287,-3.24861 2.32043,-3.24861 1.23757,0 2.32044,0.77348 2.32044,3.24861 v 2.47515 z"
           fill="#c41230"
           id="XMLID_525_" />
        <path
           style="stroke-width:1.54696"
           d="m 469.4311,143.92823 v -9.90053 c 0,-4.02209 -1.70165,-5.87844 -5.10496,-5.87844 -2.47512,0 -4.95025,1.39227 -5.87843,3.558 v -2.9392 h -7.58009 v 0.92817 h 2.47513 v 14.232 h -2.47513 v 0.92818 h 9.74584 v -0.92818 h -2.16575 v -9.74582 c 0.3094,-1.39227 2.01103,-4.48618 4.02208,-4.48618 1.39227,0 2.01105,0.46408 2.01105,2.93921 v 11.29279 h -2.16575 v 0.92818 h 9.74584 v -0.92818 z"
           fill="#c41230"
           id="XMLID_526_" />
        <path
           style="stroke-width:1.54696"
           d="m 407.86223,128.92275 v 2.93921 0 c 0.92817,-2.16573 3.55799,-3.55798 5.87843,-3.55798 3.55799,0 5.10495,1.85633 5.10495,5.87843 v 9.90052 h 2.47514 v 0.92817 h -9.74584 v -0.92817 h 2.16575 v -11.29279 c 0,-2.47513 -0.61879,-2.93921 -2.01105,-2.93921 -2.01105,0 -3.7127,3.09391 -4.0221,4.48616 v 9.74584 h 2.16575 v 0.92817 h -9.74582 v -0.92817 h 2.47513 v -14.232 h -2.47513 v -0.92818 z"
           fill="#c41230"
           id="XMLID_527_" />
        <path
           style="stroke-width:1.54696"
           d="m 246.20523,144.08293 v -9.90052 c 0,-4.0221 -1.70165,-5.87843 -5.10495,-5.87843 -2.47513,0 -4.95026,1.39225 -5.87844,3.55798 v -2.93921 h -7.58009 v 0.92818 h 2.47513 v 14.232 h -2.47513 v 0.92817 h 9.74582 v -0.92817 h -2.16573 v -9.74584 c 0.30938,-1.39225 2.01104,-4.48616 4.02209,-4.48616 1.39227,0 2.01105,0.46408 2.01105,2.93921 v 11.29279 h -2.16575 v 0.92817 h 9.74583 v -0.92817 z"
           fill="#c41230"
           id="XMLID_528_" />
        <path
           style="stroke-width:1.54696"
           d="m 285.34324,123.8178 c 0,1.39225 1.08286,2.47513 2.47513,2.47513 1.39226,0 2.47513,-1.08288 2.47513,-2.47513 0,-1.39228 -1.08287,-2.47515 -2.47513,-2.47515 -1.39227,0 -2.47513,1.08287 -2.47513,2.47515"
           fill="#c41230"
           id="XMLID_529_" />
        <path
           style="stroke-width:1.54696"
           d="m 575.86172,128.76806 v 1.08287 c 1.54697,0 2.32045,0.15473 2.32045,0.92816 0,0.61879 -0.15473,1.23757 -0.6188,2.16575 l -2.47511,5.87843 -4.0221,-8.97234 h 2.01105 v -1.08287 h -12.68504 v -7.88949 h -0.61878 c 0,3.8674 -2.62983,7.88949 -6.34253,7.88949 v 1.08287 h 2.01103 v 11.29277 c 0,3.55801 2.93923,4.17679 4.0221,4.17679 2.16573,0 3.71269,-0.92818 4.95026,-2.78453 l -0.77348,-0.46408 c -0.46409,0.61879 -1.08287,1.54695 -2.01105,1.54695 -0.77347,0 -1.08287,-0.46408 -1.08287,-1.70163 v -12.06627 h 5.10497 l 6.65191,15.46956 -2.32044,5.41435 v 0 0 0 l -0.30938,0.15473 -0.3094,-0.15473 v 0 c -0.3094,-1.08287 -1.23757,-1.85635 -2.47513,-1.85635 -1.39226,0 -2.47513,1.08287 -2.47513,2.47513 0,0.92817 0.61878,1.85635 1.39225,2.32045 v 0 h 0.15473 0.15473 c 0.3094,0.15473 0.61878,0.15473 0.92818,0.15473 2.16573,0.15473 3.24861,-1.39226 4.02208,-2.93921 0.15473,-0.3094 0.3094,-0.77348 0.4641,-1.08288 0.30938,-0.77348 0.92817,-2.16573 1.54695,-3.7127 l 0.61878,-1.54695 v 0 l 5.10496,-12.22095 c 1.08287,-2.32045 1.54695,-2.62983 2.78453,-2.62983 v 0 -1.08288 h -5.72376 z"
           fill="#c41230"
           id="XMLID_530_" />
        <g
           transform="matrix(1.5469569,0,0,1.5469569,133.89616,-299.4296)"
           id="XMLID_533_">
          <defs
             id="defs346">
            <rect
               height="23.6"
               width="266.39999"
               y="270"
               x="23.1"
               id="rect522" />
          </defs>
          <clipPath
             id="XMLID_585_">
            <use
               height="100%"
               width="100%"
               y="0"
               x="0"
               id="use348"
               overflow="visible"
               xlink:href="#XMLID_532_" />
          </clipPath>
          <path
             d="m 58.2,276.5 c -1.5,0 -2.7,1 -3.1,2.2 v 0 -1.8 h -4.9 v 0.7 h 1.6 v 9.1 h -1.6 v 0.6 h 7.1 v -0.6 H 55 v -5.1 c 0,-1.5 0.4,-3.1 1.4,-3.9 h 0.2 l 0.1,0.2 v 0 c -0.1,0.2 -0.1,0.4 -0.1,0.7 0,0.9 0.7,1.5 1.6,1.5 1.1,0 1.8,-0.8 1.8,-1.7 0,-1.2 -0.7,-1.9 -1.8,-1.9 z"
             fill="#c41230"
             clip-path="url(#XMLID_585_)"
             id="XMLID_534_" />
          <path
             d="m 91.1,280.1 c 0,2.8 -0.6,2.8 -1.5,2.8 -0.9,0 -1.4,-0.2 -1.4,-2.9 0,-1.9 0.2,-2.7 1.4,-2.7 1.1,0 1.5,0 1.5,2.8 z m -0.4,8.1 c 2.4,0 3,0.1 3,1.5 0,1.7 -2.1,3.3 -4.5,3.3 -2.1,0 -3.2,-1.3 -3.2,-2.4 0,-1 0.5,-1.7 1.2,-2.4 z m 3.1,-10.9 h 0.1 v 0.1 0 c -0.1,0.2 -0.2,0.5 -0.1,0.9 0.1,0.3 0.4,0.6 0.7,0.6 0.7,0.2 1.3,-0.3 1.3,-1 0,-0.4 -0.3,-0.7 -0.6,-0.9 -0.3,-0.2 -0.7,-0.3 -1,-0.3 -0.6,0 -1.3,0.3 -1.7,0.7 v 0 c -0.1,-0.1 -0.2,-0.2 -0.3,-0.2 -0.7,-0.4 -1.5,-0.6 -2.6,-0.6 -2,0 -4.1,1.3 -4.1,3.5 0,1.3 0.7,2.3 2,2.9 v 0 c -0.9,0.1 -2.4,0.8 -2.4,2.7 0,1.2 0.5,2.1 1.5,2.4 v 0 c -0.9,0.3 -2,1.2 -2,2.3 0,1.8 2.1,3.1 4.7,3.1 3.3,0 5.5,-2.2 5.5,-5.1 0,-2.3 -1.1,-3.3 -3.5,-3.3 h -3.9 c -0.6,0 -1,0 -1,-0.7 0,-0.6 0.9,-1.2 1.8,-1.2 0.2,0 0.4,0.1 0.5,0.1 0.3,0.1 0.6,0.1 1,0.1 2,0 4.2,-1.2 4.2,-3.4 0,-0.7 -0.3,-1.6 -0.9,-2.2 v -0.1 c 0.2,-0.2 0.5,-0.3 0.6,-0.4 0.1,0 0.1,0 0.2,0 z"
             fill="#c41230"
             clip-path="url(#XMLID_585_)"
             id="XMLID_538_" />
        </g>
        <path
           style="stroke-width:1.54696"
           d="m 526.97789,128.14926 c -2.32043,0 -4.17678,1.54697 -4.79556,3.40332 v 0 -2.78452 h -7.58009 v 1.08287 h 2.47513 v 14.0773 h -2.47513 v 0.92818 h 10.9834 v -0.92818 h -3.40331 v -7.88948 c 0,-2.32044 0.61878,-4.79557 2.16573,-6.03314 h 0.3094 l 0.15473,0.3094 v 0 c -0.15473,0.3094 -0.15473,0.61878 -0.15473,1.08287 0,1.39226 1.08286,2.32043 2.47513,2.32043 1.70165,0 2.78453,-1.23755 2.78453,-2.62982 0,-1.85634 -1.08288,-2.93923 -2.93923,-2.93923 z"
           fill="#c41230"
           id="XMLID_531_" />
      </g>
      <g
         display="none"
         id="XMLID_26_">
        <g
           display="inline"
           transform="translate(-2.275862,20.103448)"
           id="g82436_1_">
          <path
             d="m 210.2,673.7 5.9,3.5 h 3.5 v 2.3 h -3.5 l -5.9,3.5 4.7,-4.7 z"
             fill="#c42032"
             id="polygon7-7-7-2-0-56-6-3-9-4_1_" />
          <path
             d="m 231.8,667.5 c -1.9,0 -3.7,0.4 -5.1,1.5 -3.4,2.7 -10.6,2.2 -9.5,9.4 -1.3,6.2 5.9,6.8 9.5,9.4 3.5,2.3 8.1,0.8 11.5,-0.1 3.9,-1.1 5,-1.1 5,-1.1 l 14.2,-14 c -5.3,-0.2 -12.6,-1.4 -15.8,-2.5 -1.4,-0.6 -5.7,-2.5 -9.8,-2.6 z m -2.7,4.1 c 1.2,0 2.1,0.9 2.1,2.1 0,1.2 -1,2.1 -2.1,2.1 -1.1,0 -2.1,-0.9 -2.1,-2.1 0,-1.2 0.9,-2.1 2.1,-2.1 z m 0,9.3 c 1.2,0 2.1,0.9 2.1,2.1 0,1.2 -1,2.1 -2.1,2.1 -1.1,0 -2.1,-0.9 -2.1,-2.1 0,-1.2 0.9,-2.1 2.1,-2.1 z"
             id="polygon7-7-7-9-36-6-3-2-79_1_" />
          <path
             d="m 250.3,707.6 h 9.5 l 9.5,9.4 -9.5,9.4 h -9.5 z"
             id="polygon7-7-7-2-0-56-1-0-6-9_1_" />
          <path
             d="m 249.1,686.5 h 33.1 c -0.8,-13.6 -17.7,-14 -17.7,-14 h -1.2 z"
             id="polygon11-5-5-3-0-1-0-5-2-5_1_" />
          <path
             d="m 220.8,725.1 v 35.1 L 236.2,745 v -19.9 z"
             id="polygon11-3-2-2-1-2-7-5-3-3-1_1_" />
          <polygon
             points="217.2,704.1 222.9,693.8 224.2,693.8 221.5,703 228.4,708.6 235.3,703 232.7,693.8 234.1,693.8 239.7,704.1 234.1,714.3 222.9,714.3 "
             id="polygon55-3-7-7-1-8-3-1-1-8-5_1_" />
          <path
             d="m 262.1,690 h 20.1 v 0 c 0,17.5 -9.5,24.6 -9.5,24.6 l -10.6,-10.5 z"
             id="polygon9-5-5-3-7-6-9-6-4-5-2-8_1_" />
          <path
             d="m 262.1,743.9 h 20.1 v 0 c 0,-17.5 -9.5,-24.6 -9.5,-24.6 l -10.6,10.5 z"
             id="polygon9-5-5-3-7-6-9-6-2-1-0-5-8_1_" />
          <ellipse
             ry="7.5999999"
             rx="7.6999998"
             cy="724.70001"
             cx="228.5"
             id="path4785-7-5-2-6_1_" />
          <path
             d="m 239.7,747.4 h 42.5 c -0.8,13.6 -17.7,14 -17.7,14 h -39 z"
             fill="#c42032"
             id="polygon11-5-5-3-0-1-0-5-2-0-5_1_" />
        </g>
      </g>
      <g
         transform="matrix(0.53567892,0,0,0.53567892,27.812833,12.722398)"
         id="XMLID_1_" />
      <g
         transform="matrix(0.53567892,0,0,0.53567892,27.812833,12.722398)"
         id="XMLID_394_" />
      <g
         transform="matrix(0.53567892,0,0,0.53567892,27.812833,12.722398)"
         id="XMLID_398_" />
      <g
         transform="matrix(0.53567892,0,0,0.53567892,27.812833,12.722398)"
         id="XMLID_578_" />
      <g
         transform="matrix(0.53567892,0,0,0.53567892,27.812833,12.722398)"
         id="XMLID_579_" />
      <g
         transform="matrix(0.53567892,0,0,0.53567892,27.812833,12.722398)"
         id="XMLID_580_" />
    </g>
  </g>
</svg>
